<?xml version="1.0" encoding="utf-8"?>
<!-- Generator: Adobe Illustrator 22.1.0, SVG Export Plug-In . SVG Version: 6.00 Build 0)  -->
<svg version="1.1" id="Layer_1" xmlns="http://www.w3.org/2000/svg" xmlns:xlink="http://www.w3.org/1999/xlink" x="0px" y="0px"
	 viewBox="0 0 55.1 71.6" style="enable-background:new 0 0 55.1 71.6;" xml:space="preserve">
<style type="text/css">
	.st0{clip-path:url(#SVGID_2_);fill:#ffffff;}
</style>
<g>
	<defs>
		<rect id="SVGID_1_" y="0" width="55.1" height="71.6"/>
	</defs>
	<clipPath id="SVGID_2_">
		<use xlink:href="#SVGID_1_"  style="overflow:visible;"/>
	</clipPath>
	<path class="st0" d="M54.4,54.5c-2.8-9.5-6-16.5-9.5-21.4C44,32,43.9,26.9,48,9.2L48.3,8c1.1-3.6,2.1-6.7,2.1-6.7
		c0.2-0.5-0.1-1.1-0.7-1.3c-0.5-0.2-1.1,0.1-1.3,0.7c0,0-1,3.1-2.1,6.8c0,0,0,0,0,0c0,0,0,0,0,0L46,8.8c-3.6,15.6-4.4,23.2-2.8,25.5
		c1.6,2.2,3.1,4.9,4.6,8.2c-5.3,2.6-12.6,4.1-20.3,4.1S12.6,45,7.3,42.4c1.5-3.2,3-5.9,4.6-8.2C13.5,32,12.6,24,9,8.6l-0.2-1
		c0,0,0,0,0,0c0,0,0,0,0,0L6.6,0.7C6.5,0.2,5.9-0.1,5.4,0C4.8,0.2,4.5,0.8,4.7,1.3l2.1,6.8L7.1,9c4.4,18.7,3.9,23.1,3.2,24.1
		C6.7,38,3.6,45,0.7,54.5c-2,6.7,0.7,15.9,0.9,16.3c0.1,0.4,0.5,0.7,1,0.7c0.1,0,0.2,0,0.3,0c0.5-0.2,0.8-0.7,0.7-1.2
		c0-0.1-2.7-9-0.9-15.2c0.2-0.8,0.5-1.5,0.7-2.3c2.5,3.4,9.3,11.2,23.2,16.5v1.4c0,0.6,0.4,1,1,1c0.6,0,1-0.4,1-1v-1.4
		c13.9-5.3,20.7-13.1,23.2-16.5c0.2,0.8,0.5,1.6,0.7,2.4c1.8,6.1-0.8,15.1-0.9,15.2c-0.2,0.5,0.1,1.1,0.7,1.2c0.1,0,0.2,0,0.3,0
		c0.4,0,0.8-0.3,1-0.7C53.6,70.4,56.4,61.2,54.4,54.5 M28.5,67.1v-3.5c0-0.6-0.4-1-1-1c-0.6,0-1,0.4-1,1v3.6
		c-15-5.9-21.3-15-22.4-16.7c0.8-2.2,1.5-4.2,2.3-6.1c5.6,2.7,13.2,4.3,21.1,4.3S43,47,48.6,44.3c0.8,1.9,1.5,3.9,2.3,6
		C50,51.7,43.9,61,28.5,67.1"/>
	<path class="st0" d="M27.5,43.3c3.3,0,6-2.2,6-4.9c0-2.7-2.7-4.9-6-4.9s-6,2.2-6,4.9C21.5,41.1,24.2,43.3,27.5,43.3 M27.5,35.5
		c2.2,0,4,1.3,4,2.9s-1.8,2.9-4,2.9c-2.2,0-4-1.3-4-2.9S25.4,35.5,27.5,35.5"/>
	<path class="st0" d="M27.5,30c2.5,0,4.6-1.7,4.6-3.8s-2.1-3.8-4.6-3.8s-4.6,1.7-4.6,3.8S25,30,27.5,30 M27.5,24.4
		c1.4,0,2.6,0.8,2.6,1.8S29,28,27.5,28c-1.4,0-2.6-0.8-2.6-1.8S26.1,24.4,27.5,24.4"/>
	<path class="st0" d="M27.5,18.1c2.4,0,4.3-1.6,4.3-3.5c0-2-1.9-3.5-4.3-3.5s-4.3,1.6-4.3,3.5C23.3,16.5,25.2,18.1,27.5,18.1
		 M27.5,13c1.2,0,2.3,0.7,2.3,1.5c0,0.8-1,1.5-2.3,1.5c-1.2,0-2.3-0.7-2.3-1.5C25.3,13.7,26.3,13,27.5,13"/>
	<path class="st0" d="M27.5,7.3c2,0,3.6-1.4,3.6-3s-1.6-3-3.6-3s-3.6,1.4-3.6,3S25.5,7.3,27.5,7.3 M27.5,3.2c1,0,1.6,0.5,1.6,1
		s-0.7,1-1.6,1c-1,0-1.6-0.5-1.6-1S26.6,3.2,27.5,3.2"/>
</g>
</svg>
