<?xml version="1.0" encoding="utf-8"?>
<!-- Generator: Adobe Illustrator 22.1.0, SVG Export Plug-In . SVG Version: 6.00 Build 0)  -->
<svg version="1.1" id="Layer_1" xmlns="http://www.w3.org/2000/svg" xmlns:xlink="http://www.w3.org/1999/xlink" x="0px" y="0px"
	 viewBox="0 0 55.1 71.6" style="enable-background:new 0 0 55.1 71.6;" xml:space="preserve">
<style type="text/css">
	.st0{clip-path:url(#SVGID_2_);fill:#C9E4D7;}
</style>
<g>
	<defs>
		<rect id="SVGID_1_" y="0" width="55.1" height="71.6"/>
	</defs>
	<clipPath id="SVGID_2_">
		<use xlink:href="#SVGID_1_"  style="overflow:visible;"/>
	</clipPath>
	<path class="st0" d="M54.4,54.5c-2.8-9.5-6-16.5-9.5-21.4C44,32,43.9,26.9,48,9.2L48.3,8c1.1-3.6,2.1-6.7,2.1-6.7
		c0.2-0.5-0.1-1.1-0.7-1.3c-0.5-0.2-1.1,0.1-1.3,0.7c0,0-1,3.1-2.1,6.8c0,0,0,0,0,0c0,0,0,0,0,0L46,8.8c-3.6,15.6-4.4,23.2-2.8,25.5
		c1.6,2.2,3.1,4.9,4.6,8.2c-5.3,2.6-12.6,4.1-20.3,4.1S12.6,45,7.3,42.4c1.5-3.2,3-5.9,4.6-8.2C13.5,32,12.6,24,9,8.6l-0.2-1
		c0,0,0,0,0,0c0,0,0,0,0,0L6.6,0.7C6.5,0.2,5.9-0.1,5.4,0C4.8,0.2,4.5,0.8,4.7,1.3l2.1,6.8L7.1,9c4.4,18.7,3.9,23.1,3.2,24.1
		C6.7,38,3.6,45,0.7,54.5c-2,6.7,0.7,15.9,0.9,16.3c0.1,0.4,0.5,0.7,1,0.7c0.1,0,0.2,0,0.3,0c0.5-0.2,0.8-0.7,0.7-1.2
		c0-0.1-2.7-9-0.9-15.2c0.2-0.8,0.5-1.5,0.7-2.3c2.5,3.4,9.3,11.2,23.2,16.5v1.4c0,0.6,0.4,1,1,1c0.6,0,1-0.4,1-1v-1.4
		c13.9-5.3,20.7-13.1,23.2-16.5c0.2,0.8,0.5,1.6,0.7,2.4c1.8,6.1-0.8,15.1-0.9,15.2c-0.2,0.5,0.1,1.1,0.7,1.2c0.1,0,0.2,0,0.3,0
		c0.4,0,0.8-0.3,1-0.7C53.6,70.4,56.4,61.2,54.4,54.5 M28.5,67.1v-3.5c0-0.6-0.4-1-1-1c-0.6,0-1,0.4-1,1v3.6
		c-15-5.9-21.3-15-22.4-16.7c0.8-2.2,1.5-4.2,2.3-6.1c5.6,2.7,13.2,4.3,21.1,4.3S43,47,48.6,44.3c0.8,1.9,1.5,3.9,2.3,6
		C50,51.7,43.9,61,28.5,67.1"/>
</g>
</svg>
