<?xml version="1.0" encoding="UTF-8"?> <svg xmlns="http://www.w3.org/2000/svg" xmlns:xlink="http://www.w3.org/1999/xlink" version="1.1" id="Layer_1" x="0px" y="0px" viewBox="0 0 65.7 95.7" style="enable-background:new 0 0 65.7 95.7;" xml:space="preserve"> <style type="text/css"> .st0{clip-path:url(#SVGID_2_);fill:none;stroke:#ffffff;stroke-width:2;stroke-miterlimit:10;} .st1{clip-path:url(#SVGID_2_);fill:none;stroke:#ffffff;stroke-miterlimit:10;} .st2{clip-path:url(#SVGID_2_);fill:none;stroke:#ffffff;stroke-width:2;stroke-linecap:round;stroke-linejoin:round;stroke-miterlimit:10;} .st3{clip-path:url(#SVGID_2_);fill:none;stroke:#ffffff;stroke-linecap:round;stroke-linejoin:round;stroke-miterlimit:10;} </style> <g> <defs> <rect id="SVGID_1_" y="0" width="65.7" height="95.7"></rect> </defs> <clipPath id="SVGID_2_"> <use xlink:href="#SVGID_1_" style="overflow:visible;"></use> </clipPath> <path class="st0" d="M60.4,94.7c2.4,0,4.3-1.9,4.3-4.3v0c0-15-24.8-5.9-24.8-24.9V64c-2.4,1.3-4.8,2-7.1,2c-2.3,0-4.7-0.7-7.1-2 v1.4c0,19-24.8,9.9-24.8,24.9v0c0,2.4,1.9,4.3,4.3,4.3"></path> <path class="st1" d="M52.4,67.5c0,1.4-1.1,2.5-2.5,2.5c-1.4,0-2.5-1.1-2.5-2.5s1.1-2.5,2.5-2.5C51.2,65.1,52.4,66.2,52.4,67.5z"></path> <path class="st1" d="M63.4,56.4c0,2-1.7,3.7-3.7,3.7c-2,0-3.7-1.7-3.7-3.7c0-2,1.7-3.7,3.7-3.7C61.8,52.7,63.4,54.4,63.4,56.4z"></path> <path class="st1" d="M61.6,42.9c0,1-0.8,1.8-1.8,1.8c-1,0-1.8-0.8-1.8-1.8c0-1,0.8-1.8,1.8-1.8C60.8,41,61.6,41.9,61.6,42.9z"></path> <path class="st1" d="M12.3,67.5c0,1.4,1.1,2.5,2.5,2.5c1.4,0,2.5-1.1,2.5-2.5s-1.1-2.5-2.5-2.5C13.4,65.1,12.3,66.2,12.3,67.5z"></path> <path class="st1" d="M1.2,56.4c0,2,1.7,3.7,3.7,3.7c2,0,3.7-1.7,3.7-3.7c0-2-1.7-3.7-3.7-3.7C2.9,52.7,1.2,54.4,1.2,56.4z"></path> <path class="st1" d="M3.1,42.9c0,1,0.8,1.8,1.8,1.8c1,0,1.8-0.8,1.8-1.8c0-1-0.8-1.8-1.8-1.8C3.9,41,3.1,41.9,3.1,42.9z"></path> <path class="st0" d="M51.9,36.8c0-11-8.7-19.9-19.5-19.9s-19.5,8.9-19.5,19.9v5.3c0,12.6,10.9,22.8,19.5,22.8s19.5-10.2,19.5-22.8 V36.8z"></path> <path class="st0" d="M32.3,16.9c10.8,0,19.5,8.9,19.5,19.9v4.8c1.7-3.1,2.7-6.7,2.7-10.5C54.5,18.9,44.6,9,32.3,9 s-22.2,10-22.2,22.2c0,3.8,1,7.4,2.7,10.5v-4.8C12.8,25.8,21.5,16.9,32.3,16.9z"></path> <path class="st0" d="M42.9,11.7C42.9,11.7,42.9,11.6,42.9,11.7C42.9,5.8,38.2,1,32.3,1S21.7,5.8,21.7,11.6c0,0,0,0,0,0.1 C24.9,10,28.5,9,32.3,9C36.2,9,39.8,10,42.9,11.7z"></path> <path class="st0" d="M32.3,16.9c-9.4,0-17.3,6.8-19.1,15.9C23.9,32,32.3,25.2,32.3,16.9z"></path> <path class="st0" d="M51.4,32.8c-1.8-9-9.7-15.9-19.1-15.9C32.3,25.2,40.7,32,51.4,32.8z"></path> <path class="st0" d="M37.2,55.5c-2.7,2.7-7.1,2.7-9.8,0l2.7-1.4c1.4-0.7,3-0.7,4.4,0L37.2,55.5z"></path> <path class="st2" d="M32.3,48.8c-0.7,0-1.3-0.3-1.9-0.8l0,0c1,1,2.6,1,3.7,0l0,0C33.7,48.5,33,48.8,32.3,48.8z"></path> <path class="st2" d="M24.9,42.6c-1.3,0-2.7-0.5-3.7-1.5l0,0c2,2,5.3,2,7.3,0l0,0C27.6,42.1,26.3,42.6,24.9,42.6z"></path> <path class="st2" d="M39.7,42.6c-1.3,0-2.7-0.5-3.7-1.5l0,0c2,2,5.3,2,7.3,0l0,0C42.4,42.1,41,42.6,39.7,42.6z"></path> <path class="st2" d="M36.1,36.2L36.1,36.2c2.3-1.2,4.9-1.5,7.3-0.7l0,0C40.9,34.8,38.3,35,36.1,36.2z"></path> <path class="st2" d="M28.6,36.2c-2.3-1.2-4.9-1.4-7.3-0.6l0,0C23.7,34.7,26.4,35,28.6,36.2L28.6,36.2z"></path> <rect x="44.6" y="40.6" transform="matrix(0.7071 -0.7071 0.7071 0.7071 -16.8615 43.9481)" class="st3" width="0" height="3.5"></rect> <rect x="41.4" y="42" transform="matrix(0.7071 -0.7071 0.7071 0.7071 -18.9989 42.1524)" class="st3" width="0" height="3.9"></rect> <rect x="18.3" y="42.3" transform="matrix(0.7071 -0.7071 0.7071 0.7071 -24.0653 26.5587)" class="st3" width="3.5" height="0"></rect> <rect x="21.3" y="44" transform="matrix(0.7071 -0.7071 0.7071 0.7071 -24.3069 29.3399)" class="st3" width="3.9" height="0"></rect> </g> </svg> 