<?xml version="1.0" encoding="utf-8"?>
<!-- Generator: Adobe Illustrator 22.1.0, SVG Export Plug-In . SVG Version: 6.00 Build 0)  -->
<svg version="1.1" id="Layer_1" xmlns="http://www.w3.org/2000/svg" xmlns:xlink="http://www.w3.org/1999/xlink" x="0px" y="0px"
	 viewBox="0 0 63.6 63.6" style="enable-background:new 0 0 63.6 63.6;" xml:space="preserve">
<style type="text/css">
	.st0{clip-path:url(#SVGID_2_);fill:none;stroke:#ffffff;stroke-width:2;stroke-miterlimit:10;}
</style>
<g>
	<defs>
		<rect id="SVGID_1_" y="0" width="63.6" height="63.6"/>
	</defs>
	<clipPath id="SVGID_2_">
		<use xlink:href="#SVGID_1_"  style="overflow:visible;"/>
	</clipPath>
	<path class="st0" d="M36.5,9l18.1,18.1c1.7,1.7,1.7,4.4,0,6c-1.7,1.7-4.4,1.7-6,0L30.5,15c-1.7-1.7-1.7-4.4,0-6
		C32.1,7.3,34.8,7.3,36.5,9z"/>
	<path class="st0" d="M59.7,3.9L59.7,3.9c3.9,3.9,3.9,10.2,0,14.1l-7.1,7L38.5,11l7-7.1C49.5,0,55.8,0,59.7,3.9z"/>
	<path class="st0" d="M33.5,18L8.1,43.4h24.2H8.1l-2.8,2.8c-1.7,1.7-1.7,4.4,0,6l-1,1l-2,2c-1.7,1.7-1.7,4.4,0,6
		c1.7,1.7,4.4,1.7,6,0l2-2l1-1c1.7,1.7,4.4,1.7,6,0l28.2-28.2L33.5,18z"/>
</g>
</svg>
