<?xml version="1.0" encoding="utf-8"?>
<!-- Generator: Adobe Illustrator 22.1.0, SVG Export Plug-In . SVG Version: 6.00 Build 0)  -->
<svg version="1.1" id="Layer_1" xmlns="http://www.w3.org/2000/svg" xmlns:xlink="http://www.w3.org/1999/xlink" x="0px" y="0px"
	 viewBox="0 0 65.5 96.7" style="enable-background:new 0 0 65.5 96.7;" xml:space="preserve">
<style type="text/css">
	
		.st0{clip-path:url(#SVGID_2_);fill:none;stroke:#C9E4D7;stroke-width:2;stroke-linecap:round;stroke-linejoin:round;stroke-miterlimit:10;}
</style>
<g>
	<defs>
		<rect id="SVGID_1_" y="0" width="65.5" height="96.7"/>
	</defs>
	<clipPath id="SVGID_2_">
		<use xlink:href="#SVGID_1_"  style="overflow:visible;"/>
	</clipPath>
	<path class="st0" d="M60.2,95.7c2.4,0,4.3-1.9,4.3-4.3v0c0-15-24.7-5.9-24.7-24.9v-1.4c-2.4,1.3-4.8,2-7.1,2s-4.7-0.7-7.1-2v1.4
		c0,19-24.7,9.9-24.7,24.9v0c0,2.4,1.9,4.3,4.3,4.3"/>
	<path class="st0" d="M32.8,17.5c11.2,0,20.2,9.2,20.2,20.6v5c1.7-3.2,2.7-6.9,2.7-10.9c0-12.6-10.3-22.9-22.9-22.9
		C20.1,9.2,9.8,19.5,9.8,32.2c0,3.9,1,7.6,2.7,10.9v-5C12.6,26.7,21.6,17.5,32.8,17.5z"/>
	<path class="st0" d="M43.7,12C43.7,12,43.7,12,43.7,12c0-6.1-4.9-11-11-11s-11,4.9-11,11c0,0,0,0,0,0.1c3.3-1.8,7-2.8,11-2.8
		C36.7,9.2,40.5,10.3,43.7,12z"/>
	<path class="st0" d="M53,38.1c0-11.4-9-20.6-20.2-20.6s-20.2,9.2-20.2,20.6v5.5c0,13,11.3,23.6,20.2,23.6
		c8.9,0,20.2-10.5,20.2-23.6V38.1z"/>
	<path class="st0" d="M32.8,17.5c-9.7,0-17.9,7-19.8,16.4C24.1,33,32.8,26,32.8,17.5z"/>
	<path class="st0" d="M52.5,33.9c-1.9-9.4-10-16.4-19.8-16.4C32.8,26,41.4,33,52.5,33.9z"/>
	<path class="st0" d="M32.8,50.4c-0.7,0-1.4-0.3-1.9-0.8l0,0c1,1,2.7,1,3.8,0l0,0C34.2,50.1,33.5,50.4,32.8,50.4z"/>
	<path class="st0" d="M37.8,57.4c-2.8,2.8-7.4,2.8-10.2,0l2.8-1.4c1.4-0.7,3.1-0.7,4.5,0L37.8,57.4z"/>
	<path class="st0" d="M25.1,44.1c-1.4,0-2.8-0.5-3.8-1.6l0,0c2.1,2.1,5.5,2.1,7.6,0l0,0C27.9,43.5,26.5,44.1,25.1,44.1z"/>
	<path class="st0" d="M40.4,44.1c-1.4,0-2.8-0.5-3.8-1.6l0,0c2.1,2.1,5.5,2.1,7.6,0l0,0C43.2,43.5,41.8,44.1,40.4,44.1z"/>
	<path class="st0" d="M36.6,37.4L36.6,37.4c2.3-1.3,5-1.5,7.6-0.7l0,0C41.7,35.9,39,36.2,36.6,37.4z"/>
	<path class="st0" d="M28.9,37.4c-2.4-1.2-5-1.5-7.6-0.7l0,0C23.9,35.9,26.6,36.1,28.9,37.4L28.9,37.4z"/>
	<rect x="45.4" y="41.9" transform="matrix(0.7071 -0.7071 0.7071 0.7071 -17.598 44.9616)" class="st0" width="0.1" height="3.6"/>
	<rect x="42.1" y="43.4" transform="matrix(0.7072 -0.707 0.707 0.7072 -19.8072 43.0941)" class="st0" width="0.1" height="4.1"/>
	
		<rect x="18.3" y="43.7" transform="matrix(0.7071 -0.7071 0.7071 0.7071 -25.0452 26.9847)" class="st0" width="3.6" height="0.1"/>
	
		<rect x="21.4" y="45.4" transform="matrix(0.7071 -0.7071 0.7071 0.7071 -25.2947 29.8601)" class="st0" width="4.1" height="0.1"/>
</g>
</svg>
