<?xml version="1.0" encoding="utf-8"?>
<!-- Generator: Adobe Illustrator 22.1.0, SVG Export Plug-In . SVG Version: 6.00 Build 0)  -->
<svg version="1.1" id="Layer_1" xmlns="http://www.w3.org/2000/svg" xmlns:xlink="http://www.w3.org/1999/xlink" x="0px" y="0px"
	 viewBox="0 0 47.9 68.1" style="enable-background:new 0 0 47.9 68.1;" xml:space="preserve">
<style type="text/css">
	
		.st0{clip-path:url(#SVGID_2_);fill:none;stroke:#C9E4D7;stroke-width:2;stroke-linecap:round;stroke-linejoin:round;stroke-miterlimit:10;}
</style>
<g>
	<defs>
		<rect id="SVGID_1_" y="0" width="47.9" height="68.1"/>
	</defs>
	<clipPath id="SVGID_2_">
		<use xlink:href="#SVGID_1_"  style="overflow:visible;"/>
	</clipPath>
	<path class="st0" d="M23.9,17.5c11.2,0,20.2,9.2,20.2,20.6v5c1.7-3.2,2.7-6.9,2.7-10.9c0-12.6-10.3-22.9-22.9-22.9
		C11.3,9.2,1,19.5,1,32.2c0,3.9,1,7.6,2.7,10.9v-5C3.7,26.7,12.8,17.5,23.9,17.5z"/>
	<path class="st0" d="M34.9,12C34.9,12,34.9,12,34.9,12c0-6.1-4.9-11-11-11S13,5.9,13,12c0,0,0,0,0,0.1c3.3-1.8,7-2.8,11-2.8
		C27.9,9.2,31.7,10.3,34.9,12z"/>
	<path class="st0" d="M44.1,38.1c0-11.4-9-20.6-20.2-20.6S3.7,26.7,3.7,38.1v5.5c0,13,11.3,23.6,20.2,23.6
		c8.9,0,20.2-10.5,20.2-23.6V38.1z"/>
	<path class="st0" d="M23.9,17.5c-9.7,0-17.9,7-19.8,16.4C15.3,33,23.9,26,23.9,17.5z"/>
	<path class="st0" d="M43.7,33.9c-1.9-9.4-10-16.4-19.8-16.4C23.9,26,32.6,33,43.7,33.9z"/>
	<path class="st0" d="M23.9,50.4c-0.7,0-1.4-0.3-1.9-0.8l0,0c1,1,2.7,1,3.8,0l0,0C25.3,50.1,24.6,50.4,23.9,50.4z"/>
	<path class="st0" d="M29,57.4c-2.8,2.8-7.4,2.8-10.2,0l2.8-1.4c1.4-0.7,3.1-0.7,4.5,0L29,57.4z"/>
	<path class="st0" d="M16.3,44.1c-1.4,0-2.8-0.5-3.8-1.6l0,0c2.1,2.1,5.5,2.1,7.6,0l0,0C19.1,43.5,17.7,44.1,16.3,44.1z"/>
	<path class="st0" d="M31.6,44.1c-1.4,0-2.8-0.5-3.8-1.6l0,0c2.1,2.1,5.5,2.1,7.6,0l0,0C34.3,43.5,33,44.1,31.6,44.1z"/>
	<path class="st0" d="M27.8,37.4L27.8,37.4c2.3-1.3,5-1.5,7.6-0.7l0,0C32.8,35.9,30.1,36.2,27.8,37.4z"/>
	<path class="st0" d="M20.1,37.4c-2.4-1.2-5-1.5-7.6-0.7l0,0C15.1,35.9,17.8,36.1,20.1,37.4L20.1,37.4z"/>
	
		<rect x="36.6" y="41.9" transform="matrix(0.7071 -0.7071 0.7071 0.7071 -20.1829 38.7208)" class="st0" width="0.1" height="3.6"/>
	<rect x="33.3" y="43.4" transform="matrix(0.7072 -0.707 0.707 0.7072 -22.3911 36.8545)" class="st0" width="0.1" height="4.1"/>
	<rect x="9.4" y="43.7" transform="matrix(0.7071 -0.7071 0.7071 0.7071 -27.6299 20.7433)" class="st0" width="3.6" height="0.1"/>
	
		<rect x="12.5" y="45.4" transform="matrix(0.7071 -0.7071 0.7071 0.7071 -27.8795 23.6187)" class="st0" width="4.1" height="0.1"/>
</g>
</svg>
