<?xml version="1.0" encoding="UTF-8"?> <svg xmlns="http://www.w3.org/2000/svg" xmlns:xlink="http://www.w3.org/1999/xlink" version="1.1" id="Layer_1" x="0px" y="0px" viewBox="0 0 65.7 95.1" style="enable-background:new 0 0 65.7 95.1;" xml:space="preserve"> <style type="text/css"> .st0{clip-path:url(#SVGID_2_);fill:none;stroke:#ffffff;stroke-width:2;stroke-miterlimit:10;} .st1{clip-path:url(#SVGID_2_);fill:none;stroke:#ffffff;stroke-width:1.5;stroke-miterlimit:10;} .st2{clip-path:url(#SVGID_2_);fill:none;stroke:#ffffff;stroke-width:1.5;stroke-linecap:round;stroke-linejoin:round;stroke-miterlimit:10;} </style> <g> <defs> <rect id="SVGID_1_" y="0" width="65.7" height="95.1"></rect> </defs> <clipPath id="SVGID_2_"> <use xlink:href="#SVGID_1_" style="overflow:visible;"></use> </clipPath> <path class="st0" d="M60.4,94.1c2.4,0,4.3-1.9,4.3-4.3v0c0-15-24.8-5.9-24.8-24.9v-1.4c-2.4,1.3-4.8,2-7.1,2c-2.3,0-4.7-0.7-7.1-2 v1.4c0,19-24.8,9.9-24.8,24.9v0c0,2.4,1.9,4.3,4.3,4.3"></path> <path class="st0" d="M52,37c0-11.1-8.8-20-19.6-20s-19.6,9-19.6,20v5.3c0,12.6,11,22.9,19.6,22.9S52,55,52,42.4V37z"></path> <path class="st0" d="M32.4,9C20.1,9,10.1,19,10.1,31.3c0,3.8,1,7.4,2.7,10.6V37c0-11.1,8.8-20,19.6-20C43.3,17,52,26,52,37v4.8 c1.7-3.1,2.7-6.7,2.7-10.6C54.7,19,44.7,9,32.4,9z"></path> <path class="st0" d="M43.1,11.7C43.1,11.7,43.1,11.7,43.1,11.7c0-6-4.8-10.7-10.7-10.7c-5.9,0-10.7,4.8-10.7,10.7c0,0,0,0,0,0.1 C24.9,10,28.5,9,32.4,9C36.3,9,39.9,10,43.1,11.7z"></path> <path class="st0" d="M32.4,17c-9.5,0-17.4,6.8-19.2,15.9C24,32.1,32.4,25.3,32.4,17z"></path> <path class="st0" d="M51.6,32.9C49.8,23.8,41.9,17,32.4,17C32.4,25.3,40.8,32.1,51.6,32.9z"></path> <path class="st0" d="M37.4,55.8c-2.7,2.7-7.2,2.7-9.9,0l2.7-1.4c1.4-0.7,3-0.7,4.4,0L37.4,55.8z"></path> <circle class="st1" cx="24" cy="41.7" r="7"></circle> <path class="st2" d="M24,38.9C24,38.9,24,38.9,24,38.9C24,38.9,24,38.9,24,38.9C24,38.9,24,38.9,24,38.9C24,38.9,24,38.9,24,38.9z"></path> <path class="st2" d="M24,44.5C24,44.5,24,44.5,24,44.5C24,44.5,24,44.5,24,44.5C24,44.5,24,44.5,24,44.5C24,44.5,24,44.5,24,44.5z"></path> <path class="st2" d="M26.8,41.7C26.8,41.7,26.8,41.7,26.8,41.7C26.8,41.7,26.8,41.7,26.8,41.7C26.8,41.7,26.8,41.7,26.8,41.7 C26.8,41.7,26.8,41.7,26.8,41.7z"></path> <path class="st2" d="M21.2,41.7C21.2,41.7,21.2,41.7,21.2,41.7C21.2,41.7,21.2,41.7,21.2,41.7C21.2,41.7,21.2,41.6,21.2,41.7 C21.2,41.6,21.2,41.7,21.2,41.7z"></path> <circle class="st1" cx="40.8" cy="41.7" r="7"></circle> <path class="st2" d="M40.8,38.9C40.8,38.9,40.8,38.9,40.8,38.9C40.8,38.9,40.8,38.9,40.8,38.9C40.8,38.9,40.8,38.9,40.8,38.9 C40.8,38.9,40.8,38.9,40.8,38.9z"></path> <path class="st2" d="M40.9,44.5C40.9,44.5,40.9,44.5,40.9,44.5C40.8,44.5,40.8,44.5,40.9,44.5C40.8,44.5,40.8,44.5,40.9,44.5 C40.9,44.5,40.9,44.5,40.9,44.5z"></path> <path class="st2" d="M43.7,41.7C43.7,41.7,43.7,41.7,43.7,41.7C43.6,41.7,43.6,41.7,43.7,41.7C43.6,41.7,43.6,41.7,43.7,41.7 C43.7,41.7,43.7,41.7,43.7,41.7z"></path> <path class="st2" d="M38,41.7C38,41.7,38,41.7,38,41.7C38,41.7,38,41.7,38,41.7C38,41.7,38,41.6,38,41.7C38,41.6,38,41.7,38,41.7z"></path> </g> </svg> 