<?xml version="1.0" encoding="UTF-8"?> <svg xmlns="http://www.w3.org/2000/svg" xmlns:xlink="http://www.w3.org/1999/xlink" version="1.1" id="Layer_1" x="0px" y="0px" viewBox="0 0 85.5 38.4" style="enable-background:new 0 0 85.5 38.4;" xml:space="preserve"> <style type="text/css"> .st0{clip-path:url(#SVGID_2_);fill:none;stroke:#ffffff;stroke-width:1.5;stroke-linecap:round;stroke-linejoin:round;stroke-miterlimit:10;} </style> <g> <defs> <rect id="SVGID_1_" y="0" width="85.5" height="38.4"></rect> </defs> <clipPath id="SVGID_2_"> <use xlink:href="#SVGID_1_" style="overflow:visible;"></use> </clipPath> <path class="st0" d="M48.8,9.8c0,3.4-2.8,6.2-6.2,6.2s-6.2-2.8-6.2-6.2c0-2.8,4.3-7.5,5.7-8.8c0.3-0.3,0.7-0.3,0.9,0 C44.6,2.3,48.8,6.9,48.8,9.8z"></path> <path class="st0" d="M42.7,13.1c-1.8,0-3.3-1.5-3.3-3.3h0C39.4,11.6,40.8,13.1,42.7,13.1L42.7,13.1z"></path> <line class="st0" x1="84.8" y1="37.7" x2="84.8" y2="26.2"></line> <line class="st0" x1="0.8" y1="26.2" x2="0.8" y2="37.7"></line> <path class="st0" d="M84.8,26.2V6.6H53.4c-0.3,0-0.5,0.1-0.7,0.3c-0.2,0.2-0.2,0.5-0.1,0.8c0.5,1.3,0.7,2.7,0.7,4.2 c-0.1,2.7-1.2,5.2-3.1,7.1c-1.9,1.9-4.5,3-7.1,3.1c-0.1,0-0.3,0-0.4,0c-1.3,0-2.6-0.2-3.9-0.7c-1.3-0.5-2.5-1.3-3.5-2.3 c-1-1-1.8-2.1-2.4-3.4c-0.6-1.3-0.9-2.8-0.9-4.2c0-1.3,0.2-2.6,0.7-3.8c0.1-0.3,0.1-0.5-0.1-0.8c-0.2-0.2-0.4-0.3-0.7-0.3H0.8v19.6 "></path> <path class="st0" d="M38.1,30c3.8,0,3.8-3.8,7.7-3.8"></path> <path class="st0" d="M30.4,26.2c3.8,0,3.8,3.8,7.7,3.8"></path> <path class="st0" d="M22.7,30c3.8,0,3.8-3.8,7.7-3.8"></path> <path class="st0" d="M15.1,26.2c3.8,0,3.8,3.8,7.7,3.8"></path> <path class="st0" d="M7.4,30c3.8,0,3.8-3.8,7.7-3.8"></path> <path class="st0" d="M0.8,26.2c3.8,0,2.8,3.8,6.7,3.8"></path> <path class="st0" d="M76.4,26.2c3.8,0,3.8,3.8,7.7,3.8"></path> <path class="st0" d="M68.7,30c3.8,0,3.8-3.8,7.7-3.8"></path> <path class="st0" d="M61.1,26.2c3.8,0,3.8,3.8,7.7,3.8"></path> <path class="st0" d="M53.4,30c3.8,0,3.8-3.8,7.7-3.8"></path> <path class="st0" d="M45.8,26.2c3.8,0,3.8,3.8,7.7,3.8"></path> </g> </svg> 