<?xml version="1.0" encoding="UTF-8"?> <svg xmlns="http://www.w3.org/2000/svg" xmlns:xlink="http://www.w3.org/1999/xlink" version="1.1" id="Layer_1" x="0px" y="0px" viewBox="0 0 85.6 61.2" style="enable-background:new 0 0 85.6 61.2;" xml:space="preserve"> <style type="text/css"> .st0{clip-path:url(#SVGID_2_);fill:none;stroke:#ffffff;stroke-width:2;stroke-linecap:round;stroke-linejoin:round;stroke-miterlimit:10;} .st1{clip-path:url(#SVGID_2_);fill:#ffffff;} </style> <g> <defs> <rect id="SVGID_1_" y="0" width="85.6" height="61.2"></rect> </defs> <clipPath id="SVGID_2_"> <use xlink:href="#SVGID_1_" style="overflow:visible;"></use> </clipPath> <path class="st0" d="M33.6,22.5c0,2.7,2.4,4.9,4.4,6.3c1.6,1.2,3.5,2.2,5.2,3.2c1.6,1,3.2,2.3,4.7,3.4c3.3,2.5,6.5,5,9.5,7.8 c0.7,0.7,1.5,1.4,1.8,2.3c0.6,1.5,0.3,3.3,0.7,4.9c0.3,1.7,1,3.6,2.4,4.7c1.2,0.9,2.8,1,4.3,1.2c1.3,0.1,2.7,0.1,4,0.1 c2.3,0,3.8,1.9,5.7,2.8c1.9,0.9,5.2,1.3,7.1,0.1c0.4-0.2,0.7-0.5,1-0.9c0.2-0.3,0.3-0.7,0.2-1c-0.1-0.2-0.2-0.3-0.3-0.5 c-0.9-1-1.9-1.8-2.8-2.8c-0.9-0.9-1.8-1.8-2.8-2.8c-1-1-2.1-2.1-3.1-3.1c-3.9-3.9-8.1-7.6-11.3-12.2c-2.4-3.4-4.2-7.1-6.1-10.7 c-2-3.7-4.3-7.3-6.4-11c-2-3.5-5-6.5-8.7-8.1c-2.6-1.1-5.3-1.4-8.1-1.2c-4.3,0.3-7.8,2-11.6,3.9c-2.2,1.1-4.4,2.2-6.5,3.4L1,20"></path> <polyline class="st0" points="34.7,25.6 18.6,36.5 10.8,41.3 "></polyline> <path class="st1" d="M59.1,1.2C59,1.7,58.5,2,57.9,1.9c-0.5-0.1-0.9-0.6-0.8-1.1c0.1-0.5,0.6-0.9,1.1-0.8 C58.8,0.1,59.2,0.6,59.1,1.2"></path> <path class="st1" d="M52.4,2.1c-0.1,0.5-0.6,0.9-1.1,0.8c-0.5-0.1-0.9-0.6-0.8-1.1c0.1-0.5,0.6-0.9,1.1-0.8 C52.2,1,52.5,1.5,52.4,2.1"></path> <path class="st1" d="M63.1,17.8c-0.1,0.5-0.6,0.9-1.1,0.8c-0.5-0.1-0.9-0.6-0.8-1.1c0.1-0.5,0.6-0.9,1.1-0.8 C62.9,16.8,63.2,17.3,63.1,17.8"></path> <path class="st1" d="M66.4,11.9c-0.1,0.5-0.6,0.9-1.1,0.8c-0.5-0.1-0.9-0.6-0.8-1.1c0.1-0.5,0.6-0.9,1.1-0.8 C66.2,10.9,66.5,11.4,66.4,11.9"></path> <path class="st1" d="M65.7,4.6c-0.1,0.5-0.6,0.9-1.1,0.8c-0.5-0.1-0.9-0.6-0.8-1.1c0.1-0.5,0.6-0.9,1.1-0.8 C65.4,3.5,65.8,4,65.7,4.6"></path> <path class="st1" d="M50.5,48.7c0-0.5,0.4-1,1-1s1,0.4,1,1c0,0.5-0.4,1-1,1S50.5,49.3,50.5,48.7"></path> <path class="st1" d="M41.3,39.5c0-0.5,0.4-1,1-1s1,0.4,1,1c0,0.5-0.4,1-1,1S41.3,40,41.3,39.5"></path> <path class="st1" d="M43.4,46.6c0-0.5,0.4-1,1-1s1,0.4,1,1c0,0.5-0.4,1-1,1S43.4,47.1,43.4,46.6"></path> </g> </svg> 