<?xml version="1.0" encoding="UTF-8"?> <svg xmlns="http://www.w3.org/2000/svg" xmlns:xlink="http://www.w3.org/1999/xlink" version="1.1" id="Layer_1" x="0px" y="0px" viewBox="0 0 261.2 28.7" style="enable-background:new 0 0 261.2 28.7;" xml:space="preserve"> <style type="text/css"> .st0{clip-path:url(#SVGID_2_);fill:#2F3438;} </style> <g> <defs> <rect id="SVGID_1_" y="0" width="261.2" height="28.7"></rect> </defs> <clipPath id="SVGID_2_"> <use xlink:href="#SVGID_1_" style="overflow:visible;"></use> </clipPath> <path class="st0" d="M50,12.7c-2.7-3.8-6.4-6.9-10.7-9C35.1,1.5,30.4,0.2,25.7,0C20.9-0.2,16,0.7,11.6,2.8C7.2,4.8,3.3,8,0.3,11.8 c-0.4,0.5-0.5,1.3-0.1,1.9c0.5,0.8,1.5,1,2.3,0.6l0.1,0c3.1-1.9,6.6-3.1,10.2-3.6c3.6-0.5,7.3-0.3,10.9,0.5c3.4,0.7,6.6,2,9.6,3.6 c-0.7,1.1-1.6,2.2-2.5,3.1c-1.6,1.5-3.6,2.6-5.5,2.7c-1,0-1.9-0.2-2.7-0.7c-0.8-0.5-1.6-1-2.4-1.7c-1.6-1.3-3-3-4.8-4.7 c0,0-0.1-0.1-0.1,0c-0.1,0-0.2,0.1-0.1,0.2c0.1,1.2,0.4,2.4,0.9,3.5c0.2,0.6,0.5,1.1,0.8,1.7c0.4,0.5,0.7,1,1.1,1.5 c0.9,1,2,1.8,3.3,2.3c1.3,0.4,2.8,0.6,4.1,0.3c1.3-0.2,2.6-0.8,3.6-1.5c1-0.7,1.9-1.6,2.7-2.6c0.9-1.1,1.6-2.4,2.1-3.7 c2.3,1.4,4.4,3,6,4.9c-2,1.3-4.1,2.4-6.3,3.2c-3,1-6.3,1.6-9.5,1.6c-3.3,0-6.6-0.6-9.7-1.8c-3.2-1.1-6.2-2.8-9-4.9 c-0.1-0.1-0.2-0.1-0.3,0c-0.1,0.1-0.1,0.2,0,0.4c2.3,2.7,5.1,5.1,8.3,6.8c3.2,1.8,6.8,2.9,10.5,3.3c3.7,0.4,7.5,0.1,11.2-0.9 c3.6-1,7.1-2.7,10.1-5l0.1-0.1c1-0.8,1.2-2.2,0.6-3.2l-1-1.4c-0.2-0.2-0.3-0.5-0.5-0.7l-0.6-0.6l-1.1-1.2l-1.2-1.1 c-1.6-1.4-3.4-2.5-5.3-3.5c-3.7-1.9-7.7-3.2-11.8-3.8c-4.1-0.6-8.2-0.7-12.3,0.1C11.1,7.1,10,7.3,8.9,7.7c1.2-0.9,2.5-1.7,3.9-2.4 c3.9-2,8.3-3.1,12.8-3.1c4.5-0.1,9,0.9,13.1,2.7c4.1,1.9,7.9,4.6,10.8,8.2c0.1,0.1,0.2,0.1,0.3,0C50,12.9,50.1,12.8,50,12.7"></path> <path class="st0" d="M68.6,19.6c0-0.9-0.2-1.6-0.7-2c-0.5-0.5-1.3-0.9-2.5-1.4c-2.2-0.8-3.8-1.8-4.8-3c-1-1.1-1.5-2.5-1.5-4 c0-1.9,0.7-3.4,2-4.5c1.3-1.1,3-1.7,5-1.7c1.4,0,2.6,0.3,3.6,0.9c1.1,0.6,1.9,1.4,2.4,2.4c0.6,1,0.9,2.2,0.9,3.5h-4.4 c0-1-0.2-1.8-0.7-2.4c-0.4-0.5-1.1-0.8-1.9-0.8c-0.8,0-1.4,0.2-1.8,0.7c-0.4,0.5-0.7,1.1-0.7,1.9c0,0.6,0.2,1.2,0.7,1.6 c0.5,0.5,1.3,1,2.6,1.5c2.2,0.8,3.7,1.7,4.7,2.9c1,1.1,1.5,2.6,1.5,4.3c0,1.9-0.6,3.4-1.8,4.5c-1.2,1.1-2.9,1.6-5,1.6 c-1.4,0-2.7-0.3-3.9-0.9c-1.2-0.6-2.1-1.4-2.8-2.5c-0.7-1.1-1-2.4-1-3.9h4.5c0,1.3,0.2,2.2,0.7,2.8c0.5,0.6,1.3,0.9,2.4,0.9 C67.9,22.1,68.6,21.2,68.6,19.6"></path> <polygon class="st0" points="90.2,7 84.7,7 84.7,25.4 80.3,25.4 80.3,7 74.9,7 74.9,3.3 90.2,3.3 "></polygon> <polygon class="st0" points="104.2,15.8 97.2,15.8 97.2,21.7 105.5,21.7 105.5,25.4 92.8,25.4 92.8,3.3 105.4,3.3 105.4,7 97.2,7 97.2,12.2 104.2,12.2 "></polygon> <path class="st0" d="M115.3,17.3h-2.2v8.1h-4.5V3.3h7.1c2.2,0,4,0.6,5.2,1.7c1.2,1.2,1.8,2.8,1.8,4.9c0,2.9-1.1,5-3.2,6.2l3.9,9 v0.2h-4.8L115.3,17.3z M113.1,13.6h2.5c0.9,0,1.6-0.3,2-0.9c0.4-0.6,0.7-1.4,0.7-2.4c0-2.2-0.9-3.3-2.6-3.3h-2.6V13.6z"></path> <polygon class="st0" points="130.9,21.7 138.7,21.7 138.7,25.4 126.5,25.4 126.5,3.3 130.9,3.3 "></polygon> <rect x="142.1" y="3.3" class="st0" width="4.5" height="22.1"></rect> <polygon class="st0" points="165.8,25.4 161.3,25.4 154.8,10.9 154.8,25.4 150.4,25.4 150.4,3.3 154.8,3.3 161.4,17.8 161.4,3.3 165.8,3.3 "></polygon> <path class="st0" d="M184.4,22.9c-0.9,0.9-1.9,1.6-3.2,2.1c-1.2,0.5-2.6,0.7-4.1,0.7c-2.5,0-4.5-0.8-5.9-2.4 c-1.4-1.6-2.1-3.9-2.2-6.9v-4c0-3,0.7-5.4,2-7c1.3-1.6,3.3-2.5,5.8-2.5c2.4,0,4.2,0.6,5.4,1.8c1.2,1.2,1.9,3,2.1,5.6h-4.3 c-0.1-1.4-0.4-2.4-0.9-2.9c-0.5-0.5-1.2-0.8-2.2-0.8c-1.2,0-2.1,0.4-2.6,1.3c-0.5,0.9-0.8,2.3-0.9,4.2v4c0,2,0.3,3.5,0.9,4.4 c0.6,0.9,1.6,1.4,3,1.4c0.9,0,1.6-0.2,2.1-0.5l0.4-0.3v-4.1h-3.1v-3.4h7.6V22.9z"></path> <polygon class="st0" points="193.5,22.6 193.5,22.9 193.6,22.6 199.4,3.3 201.3,3.3 194.4,25.4 192.7,25.4 185.8,3.3 187.7,3.3 "></polygon> <rect x="204.3" y="3.3" class="st0" width="1.7" height="22.1"></rect> <path class="st0" d="M220.7,20c0-1.2-0.4-2.2-1.1-2.9c-0.7-0.7-2-1.4-3.9-2c-1.9-0.6-3.3-1.4-4.2-2.2c-1.2-1-1.8-2.4-1.8-4.1 c0-1.7,0.6-3.1,1.7-4.1c1.2-1.1,2.7-1.6,4.5-1.6c1.9,0,3.4,0.6,4.6,1.9c1.2,1.2,1.8,2.8,1.8,4.8h-1.7c0-1.5-0.4-2.7-1.3-3.6 c-0.8-0.9-2-1.4-3.4-1.4c-1.4,0-2.5,0.4-3.3,1.1c-0.8,0.8-1.2,1.7-1.2,2.9c0,1.1,0.4,2,1.1,2.7c0.8,0.7,2,1.3,3.6,1.9 c1.7,0.5,2.9,1.1,3.8,1.7c0.8,0.6,1.5,1.3,1.9,2.1c0.4,0.8,0.6,1.7,0.6,2.8c0,1.7-0.6,3.1-1.8,4.2c-1.2,1.1-2.7,1.6-4.6,1.6 c-1.3,0-2.5-0.3-3.5-0.8c-1.1-0.5-1.9-1.3-2.5-2.3c-0.6-1-0.9-2.2-0.9-3.5h1.7c0,1.6,0.5,2.8,1.4,3.7c0.9,0.9,2.2,1.3,3.8,1.3 c1.4,0,2.5-0.4,3.4-1.1C220.2,22.2,220.7,21.2,220.7,20"></path> <rect x="225.4" y="3.3" class="st0" width="1.7" height="22.1"></rect> <path class="st0" d="M244.5,16.7c0,2.9-0.6,5.1-1.9,6.6c-1.2,1.6-3,2.3-5.3,2.3c-2.2,0-4-0.8-5.3-2.3c-1.3-1.6-1.9-3.7-1.9-6.6V12 c0-2.8,0.6-5,1.9-6.6c1.3-1.6,3-2.4,5.2-2.4c2.3,0,4,0.8,5.3,2.4c1.3,1.6,1.9,3.8,1.9,6.7V16.7z M242.8,11.9c0-2.4-0.5-4.2-1.4-5.4 c-0.9-1.2-2.3-1.8-4-1.8c-1.7,0-3,0.6-4,1.8c-1,1.2-1.4,3-1.5,5.3v4.9c0,2.4,0.5,4.3,1.4,5.5c1,1.2,2.3,1.8,4,1.8 c1.8,0,3.1-0.6,4-1.8c0.9-1.2,1.4-3,1.4-5.5V11.9z"></path> <polygon class="st0" points="261.2,25.4 259.5,25.4 249,6.6 249,25.4 247.3,25.4 247.3,3.3 249,3.3 259.5,22.1 259.5,3.3 261.2,3.3 "></polygon> </g> </svg> 