<?xml version="1.0" encoding="UTF-8"?> <svg xmlns="http://www.w3.org/2000/svg" xmlns:xlink="http://www.w3.org/1999/xlink" version="1.1" id="Layer_1" x="0px" y="0px" viewBox="0 0 486 42" style="enable-background:new 0 0 486 42;" xml:space="preserve"> <style type="text/css"> .st0{clip-path:url(#SVGID_2_);fill:#ffffff;} .st1{clip-path:url(#SVGID_2_);fill:#ffffff;} </style> <g> <defs> <rect id="SVGID_1_" y="0" width="486" height="42"></rect> </defs> <clipPath id="SVGID_2_"> <use xlink:href="#SVGID_1_" style="overflow:visible;"></use> </clipPath> <path class="st0" d="M101.2,28.9c0-1.1-0.4-2.2-0.9-3c-1.1-0.9-2.2-1.5-3.7-2c-2.6-0.9-5-2.4-6.9-4.3c-1.3-1.7-2-3.7-2-5.8 c-0.2-2.4,0.9-4.8,3-6.5c2-1.7,4.7-2.6,7.3-2.6c1.9,0,3.7,0.4,5.2,1.3c1.5,0.7,2.8,2,3.5,3.5c0.9,1.7,1.3,3.3,1.3,5.2h-6.5 c0-1.3-0.2-2.4-0.9-3.5C98.9,9.7,96.5,9.7,95,11c-0.7,0.7-0.9,1.7-0.9,2.8c0,0.9,0.4,1.9,1.1,2.4c1.1,0.9,2.4,1.7,3.7,2.2 c2.6,0.7,5,2.2,6.9,4.1c1.5,1.7,2.2,4.1,2.2,6.3c0.2,2.4-0.9,4.8-2.6,6.5c-2,1.7-4.7,2.4-7.3,2.4c-2,0-3.9-0.6-5.8-1.5 c-1.7-0.7-3.2-2-4.1-3.7c-0.9-1.7-1.5-3.7-1.5-5.6h6.5c-0.2,1.5,0.2,2.8,1.1,4.1c0.9,0.9,2.2,1.3,3.5,1.3 C100,32.4,101.2,31.3,101.2,28.9"></path> <polygon class="st0" points="132.6,10.5 124.6,10.5 124.6,37.3 118.1,37.3 118.1,10.5 110.3,10.5 110.3,5.1 132.4,5.1 "></polygon> <polygon class="st0" points="152.9,23.3 142.8,23.3 142.8,31.9 154.7,31.9 154.7,37.3 136.3,37.3 136.3,5.1 154.7,5.1 154.7,10.5 142.8,10.5 142.8,18.1 152.9,18.1 "></polygon> <path class="st0" d="M169.2,25.5h-3.2v11.7h-6.7V5.1h10.4c2.8-0.2,5.4,0.7,7.4,2.6c1.9,1.9,2.8,4.5,2.6,7.3 c0.4,3.7-1.5,7.1-4.7,8.9l5.6,13.2v0.4h-6.9L169.2,25.5z M165.9,20.3h3.7c1.1,0,2.2-0.4,3-1.3c0.7-0.9,1.1-2.2,0.9-3.5 c0-3.2-1.3-4.8-3.7-4.8h-3.7v9.7H165.9z"></path> <polygon class="st0" points="191.9,31.9 203.3,31.9 203.3,37.3 185.4,37.3 185.4,5.1 191.9,5.1 "></polygon> <rect x="208.3" y="5.1" class="st0" width="6.5" height="32.2"></rect> <polygon class="st0" points="242.7,37.3 236.2,37.3 226.7,16.1 226.7,37.3 220.4,37.3 220.4,5.1 226.9,5.1 236.4,26.3 236.4,5.1 242.9,5.1 242.9,37.3 "></polygon> <path class="st0" d="M269.9,33.7c-1.3,1.3-2.8,2.4-4.7,3.2c-1.9,0.7-3.9,1.1-6.1,0.9c-3.2,0.2-6.3-1.1-8.6-3.3 c-2.2-2.8-3.3-6.5-3.2-10v-5.8c-0.2-3.7,0.7-7.3,3-10.2c2-2.4,5.2-3.9,8.4-3.5c2.8-0.2,5.8,0.7,8,2.6c2,2.2,3.2,5,3.2,8h-6.3 c0-1.5-0.4-3-1.3-4.3c-2-1.7-5.2-1.5-6.9,0.7l-0.2,0.2c-0.9,1.9-1.3,3.9-1.3,6.1v5.8c-0.2,2.2,0.4,4.5,1.3,6.3 c0.9,1.5,2.6,2.2,4.3,2c1.1,0,2.2-0.2,3.2-0.7l0.6-0.4v-5.8h-4.6v-4.8h11L269.9,33.7z"></path> <path class="st0" d="M290.3,28.3h-12.1l-2.8,8.9h-2.6l10.2-32.2h2.4l10.2,32.2h-2.6L290.3,28.3z M278.8,25.9h10.6L284,8.6 L278.8,25.9z"></path> <polygon class="st0" points="314.5,22 302,22 302,35 316.4,35 316.4,37.4 299.4,37.4 299.4,5.1 316.2,5.1 316.2,7.5 301.9,7.5 301.9,19.6 314.3,19.6 314.3,22 "></polygon> <path class="st0" d="M336.3,29.4c0-1.5-0.6-3.2-1.5-4.3c-1.7-1.3-3.7-2.4-5.8-3c-2.2-0.6-4.3-1.7-6.1-3.2c-1.7-1.5-2.6-3.7-2.6-6.1 c0-2.2,0.9-4.5,2.6-6.1c1.9-1.7,4.1-2.4,6.5-2.2c2.6-0.2,5,0.9,6.7,2.8c1.7,1.9,2.8,4.3,2.6,6.9h-2.6c0-1.9-0.6-3.7-1.9-5.2 c-1.3-1.3-3.2-2-5-2c-1.7-0.2-3.5,0.6-4.8,1.7c-1.1,1.1-1.9,2.6-1.7,4.3c0,1.5,0.6,3,1.7,4.1c1.5,1.3,3.3,2.2,5.2,2.8 c1.9,0.6,3.7,1.5,5.4,2.4c1.1,0.7,2,1.9,2.8,3c0.6,1.3,0.9,2.6,0.9,4.1c0,2.2-0.9,4.5-2.6,6.1c-1.9,1.7-4.3,2.4-6.7,2.2 c-1.9,0-3.5-0.4-5.2-1.1c-1.5-0.7-2.8-1.9-3.7-3.3c-0.9-1.5-1.3-3.3-1.3-5.2h2.4c-0.2,2,0.6,3.9,2,5.4c1.5,1.3,3.5,2,5.6,2 c1.9,0,3.5-0.6,4.8-1.7C335.7,32.8,336.3,31.1,336.3,29.4"></path> <polygon class="st0" points="361.2,7.5 352.1,7.5 352.1,37.3 349.7,37.3 349.7,7.5 340.5,7.5 340.5,5.1 361.4,5.1 "></polygon> <polygon class="st0" points="385.6,37.3 383,37.3 383,21.8 367.9,21.8 367.9,37.3 365.3,37.3 365.3,5.1 367.9,5.1 367.9,19.6 383,19.6 383,5.1 385.6,5.1 "></polygon> <polygon class="st0" points="405.5,22 393,22 393,35 407.3,35 407.3,37.4 390.4,37.4 390.4,5.1 407.1,5.1 407.1,7.5 392.8,7.5 392.8,19.6 405.3,19.6 405.3,22 "></polygon> <polygon class="st0" points="431.9,7.5 422.8,7.5 422.8,37.3 420.2,37.3 420.2,7.5 411,7.5 411,5.1 431.9,5.1 "></polygon> <rect x="435.6" y="5.1" class="st0" width="2.6" height="32.2"></rect> <path class="st0" d="M462.9,27.2c0,3-0.9,5.8-3,8c-1.9,1.9-4.5,2.6-7.1,2.6c-3,0.2-5.6-1.1-7.4-3.5c-1.9-2.8-3-6.1-2.8-9.7v-6.9 c-0.2-3.3,0.7-6.7,2.8-9.5c1.9-2.2,4.7-3.5,7.4-3.5c2.6-0.2,5,0.7,6.9,2.6c1.9,2.2,2.8,5,2.8,8H460c0-2.2-0.7-4.5-2-6.3 c-3.2-2.8-8-2.4-10.8,0.7l-0.2,0.2c-1.5,2.4-2.2,5.2-2,7.8v6.9c-0.2,2.8,0.6,5.6,2,8c1.3,1.9,3.3,3,5.6,2.8c2,0.2,3.9-0.6,5.4-1.9 c1.3-1.9,2-3.9,2-6.3H462.9z"></path> <path class="st0" d="M483.4,29.4c0-1.5-0.6-3.2-1.5-4.3c-1.7-1.3-3.7-2.4-5.8-3c-2.2-0.7-4.3-1.7-6.1-3.2c-1.7-1.5-2.6-3.7-2.6-6.1 c0-2.2,0.9-4.5,2.6-6.1c1.9-1.7,4.1-2.4,6.5-2.2c2.6,0,5,0.9,6.7,2.8c1.7,1.9,2.8,4.3,2.6,6.9h-2.6c0-1.9-0.6-3.7-1.9-5.2 c-1.3-1.3-3.2-2-5-2c-1.7-0.2-3.5,0.6-4.8,1.7c-1.1,1.1-1.9,2.6-1.7,4.3c0,1.5,0.6,3,1.7,4.1c1.5,1.3,3.3,2.2,5.2,2.8 c2,0.6,3.9,1.5,5.6,2.6c1.1,0.7,2,1.9,2.8,3c0.6,1.3,0.9,2.6,0.9,4.1c0,2.2-0.9,4.5-2.6,6.1c-1.9,1.7-4.3,2.4-6.7,2.4 c-1.9,0-3.5-0.4-5.2-1.1c-1.5-0.7-2.8-1.9-3.7-3.3c-0.9-1.5-1.3-3.3-1.3-5.2h2.6c-0.2,2,0.6,3.9,2,5.4c1.5,1.3,3.5,2,5.6,2 c1.9,0,3.5-0.6,4.8-1.7C482.8,32.8,483.6,31.1,483.4,29.4"></path> <path class="st1" d="M73.4,18.7c-4.1-5.6-9.5-10-15.6-13.2c-6.1-3.2-13-5-20.1-5.4c-7.1-0.4-14.1,1.1-20.6,4.1 C10.6,7.1,5,11.8,0.5,17.5c-0.6,0.7-0.7,1.9-0.2,2.8c0.7,1.1,2.2,1.5,3.3,0.7h0.2c4.7-2.8,9.7-4.6,15.1-5.4 c5.4-0.7,10.8-0.6,16,0.6c5,0.9,9.7,2.8,14.1,5.2c-1.1,1.7-2.2,3.2-3.7,4.5c-2.2,2.2-5,3.5-8,3.9c-1.3,0-2.8-0.4-3.9-0.9 c-1.3-0.7-2.4-1.5-3.5-2.4c-2.4-1.9-4.5-4.5-6.9-6.9h-0.2c-0.2,0-0.2,0.2-0.2,0.2c0.2,1.9,0.6,3.5,1.3,5.2c0.4,0.9,0.7,1.7,1.3,2.4 c0.6,0.7,1.1,1.5,1.7,2.2c1.3,1.5,3,2.6,4.8,3.3c1.9,0.7,4.1,0.9,6.1,0.6c1.9-0.4,3.7-1.1,5.4-2.2c1.5-1.1,2.8-2.2,3.9-3.7 c1.3-1.7,2.4-3.5,3.2-5.4c3.2,1.9,6.1,4.3,8.6,7.1c-3,1.9-6,3.5-9.3,4.7c-4.5,1.5-9.1,2.4-13.9,2.2c-4.8,0-9.7-0.9-14.1-2.6 c-4.7-1.9-9.1-4.3-13.2-7.3c-0.2-0.2-0.4-0.2-0.4,0c-0.2,0.2-0.2,0.4,0,0.6c3.3,4.1,7.4,7.4,12.1,10c4.8,2.6,10,4.3,15.4,4.8 c5.6,0.6,11,0.2,16.4-1.3c5.4-1.5,10.4-3.9,14.9-7.3l0.2-0.2c1.5-1.1,1.9-3.2,0.7-4.7l-1.3-2.2c-0.2-0.4-0.4-0.7-0.7-1.1l-0.7-0.9 l-1.7-1.9l-1.9-1.5c-2.4-2-5-3.7-7.8-5.2c-5.4-2.8-11.2-4.6-17.3-5.6c-6-0.9-12.1-0.9-18,0c-1.7,0.4-3.2,0.7-4.8,1.1 c1.9-1.3,3.7-2.6,5.8-3.5c5.8-3,12.3-4.5,18.8-4.7c6.7,0,13.2,1.3,19.2,4.1c6.1,2.8,11.5,6.7,15.8,11.9c0.2,0.2,0.4,0.2,0.6,0 C73.4,19,73.6,18.8,73.4,18.7"></path> </g> </svg> 