<?xml version="1.0" encoding="UTF-8"?> <svg xmlns="http://www.w3.org/2000/svg" xmlns:xlink="http://www.w3.org/1999/xlink" version="1.1" id="Layer_1" x="0px" y="0px" viewBox="0 0 71.3 95.7" style="enable-background:new 0 0 71.3 95.7;" xml:space="preserve"> <style type="text/css"> .st0{clip-path:url(#SVGID_2_);fill:none;stroke:#ffffff;stroke-width:2;stroke-miterlimit:10;} .st1{clip-path:url(#SVGID_2_);fill:none;stroke:#ffffff;stroke-width:2;stroke-linecap:round;stroke-linejoin:round;stroke-miterlimit:10;} .st2{clip-path:url(#SVGID_2_);fill:#ffffff;} </style> <g> <defs> <rect id="SVGID_1_" y="0" width="71.3" height="95.7"></rect> </defs> <clipPath id="SVGID_2_"> <use xlink:href="#SVGID_1_" style="overflow:visible;"></use> </clipPath> <path class="st0" d="M61.6,94.7c2.4,0,4.3-1.9,4.3-4.3v0c0-15-24.8-5.9-24.8-24.9v-1.4c-2.4,1.3-4.8,2-7.1,2c-2.3,0-4.7-0.7-7.1-2 v1.4c0,19-24.8,9.9-24.8,24.9v0c0,2.4,1.9,4.3,4.3,4.3"></path> <path class="st1" d="M53.3,37.2c0-11.1-8.8-20.1-19.7-20.1s-19.7,9-19.7,20.1v5.4c0,12.7,11,23,19.7,23c8.7,0,19.7-10.3,19.7-23 V37.2z"></path> <path class="st1" d="M33.5,17.1c10.9,0,19.7,9,19.7,20.1v4.9c1.7-3.2,2.7-6.8,2.7-10.6C55.9,19.1,45.9,9,33.5,9 c-12.4,0-22.4,10-22.4,22.4c0,3.8,1,7.5,2.7,10.6v-4.9C13.8,26.1,22.7,17.1,33.5,17.1z"></path> <path class="st1" d="M44.3,11.8C44.3,11.8,44.3,11.7,44.3,11.8c0-6-4.8-10.8-10.7-10.8S22.8,5.8,22.8,11.7c0,0,0,0,0,0.1 C26,10,29.7,9,33.5,9C37.4,9,41.1,10,44.3,11.8z"></path> <path class="st1" d="M33.5,17.1c-9.5,0-17.4,6.9-19.3,16C25.1,32.3,33.5,25.4,33.5,17.1z"></path> <path class="st1" d="M52.8,33.1c-1.9-9.1-9.8-16-19.3-16C33.5,25.4,42,32.3,52.8,33.1z"></path> <path class="st1" d="M33.5,49.2c-0.7,0-1.4-0.3-1.9-0.8l0,0C32.2,48.9,32.8,49.2,33.5,49.2c0.7,0,1.4-0.3,1.8-0.8l0,0 C34.9,48.9,34.3,49.2,33.5,49.2z"></path> <path class="st1" d="M44.7,42.9c-0.8-0.8-1.9-1.3-3.1-1.3s-2.3,0.5-3.1,1.3l0,0C40.2,41.2,43,41.2,44.7,42.9L44.7,42.9z"></path> <path class="st1" d="M37.9,36.5L37.9,36.5c2.3-1.2,4.9-1.5,7.4-0.7l0,0C42.8,35.1,40.2,35.3,37.9,36.5z"></path> <path class="st1" d="M28.5,42.9c-0.8-0.8-1.9-1.3-3.1-1.3c-1.2,0-2.3,0.5-3.1,1.3l0,0C24.1,41.2,26.9,41.2,28.5,42.9L28.5,42.9z"></path> <path class="st1" d="M29.2,36.5c-2.3-1.2-4.9-1.4-7.4-0.6l0,0C24.2,35.1,26.9,35.3,29.2,36.5L29.2,36.5z"></path> <path class="st1" d="M33.5,58.1c2.8,0,5.2-1.3,6.8-3.3c0.3-0.4,0-1-0.5-1H27.3c-0.5,0-0.8,0.6-0.5,1C28.3,56.8,30.8,58.1,33.5,58.1 z"></path> <path class="st2" d="M66.8,18.6c-0.3,0.4-0.9,0.5-1.4,0.2c-0.4-0.3-0.5-0.9-0.2-1.4c0.3-0.4,0.9-0.5,1.4-0.2 C67,17.6,67.1,18.2,66.8,18.6"></path> <path class="st2" d="M60.4,16.4c-0.3,0.4-0.9,0.5-1.4,0.2c-0.4-0.3-0.5-0.9-0.2-1.4c0.3-0.4,0.9-0.5,1.4-0.2 C60.6,15.4,60.7,16,60.4,16.4"></path> <path class="st2" d="M62.8,35.3c-0.3,0.4-0.9,0.5-1.4,0.2c-0.4-0.3-0.5-0.9-0.2-1.4c0.3-0.4,0.9-0.5,1.4-0.2 C63.1,34.3,63.2,34.9,62.8,35.3"></path> <path class="st2" d="M68.4,31.6c-0.3,0.4-0.9,0.5-1.4,0.2c-0.4-0.3-0.5-0.9-0.2-1.4c0.3-0.4,0.9-0.5,1.4-0.2 C68.7,30.5,68.7,31.2,68.4,31.6"></path> <path class="st2" d="M71.1,24.7c-0.3,0.4-0.9,0.5-1.4,0.2c-0.4-0.3-0.5-0.9-0.2-1.4c0.3-0.4,0.9-0.5,1.4-0.2 C71.3,23.6,71.4,24.2,71.1,24.7"></path> <path class="st2" d="M3.7,71.3c0.4-0.4,1-0.4,1.4,0c0.4,0.4,0.4,1,0,1.4c-0.4,0.4-1,0.4-1.4,0C3.3,72.3,3.3,71.7,3.7,71.3"></path> <path class="st2" d="M9.7,74.4c0.4-0.4,1-0.4,1.4,0c0.4,0.4,0.4,1,0,1.4c-0.4,0.4-1,0.4-1.4,0C9.3,75.4,9.3,74.8,9.7,74.4"></path> <path class="st2" d="M10,55.3c0.4-0.4,1-0.4,1.4,0c0.4,0.4,0.4,1,0,1.4c-0.4,0.4-1,0.4-1.4,0C9.6,56.3,9.6,55.7,10,55.3"></path> <path class="st2" d="M3.9,58.3c0.4-0.4,1-0.4,1.4,0c0.4,0.4,0.4,1,0,1.4c-0.4,0.4-1,0.4-1.4,0C3.5,59.2,3.5,58.6,3.9,58.3"></path> <path class="st2" d="M0.3,64.7c0.4-0.4,1-0.4,1.4,0c0.4,0.4,0.4,1,0,1.4c-0.4,0.4-1,0.4-1.4,0C-0.1,65.7-0.1,65.1,0.3,64.7"></path> </g> </svg> 