<?xml version="1.0" encoding="UTF-8"?> <svg xmlns="http://www.w3.org/2000/svg" xmlns:xlink="http://www.w3.org/1999/xlink" version="1.1" id="Layer_1" x="0px" y="0px" viewBox="0 0 86.4 96.7" style="enable-background:new 0 0 86.4 96.7;" xml:space="preserve"> <style type="text/css"> .st0{clip-path:url(#SVGID_2_);fill:none;stroke:#ffffff;stroke-width:2;stroke-miterlimit:10;} .st1{clip-path:url(#SVGID_2_);fill:#ffffff;} .st2{clip-path:url(#SVGID_2_);fill:none;stroke:#ffffff;stroke-width:0.5;stroke-miterlimit:10;} .st3{clip-path:url(#SVGID_2_);fill:none;stroke:#ffffff;stroke-width:2;stroke-linecap:round;stroke-linejoin:round;stroke-miterlimit:10;} </style> <g> <defs> <rect id="SVGID_1_" y="0" width="86.4" height="96.7"></rect> </defs> <clipPath id="SVGID_2_"> <use xlink:href="#SVGID_1_" style="overflow:visible;"></use> </clipPath> <path class="st0" d="M10.2,30.1l-3.5,2.3c-1.5,1-1.9,2.9-0.9,4.4l4.9,7.6c0.6,0.9,1.4,1.5,2.4,1.8l28,11.2c1,0.3,2.1,0.2,3-0.4 l8-5.6c0.9-0.6,1.5-1.5,1.6-2.5l0.4-29.7c0.1-0.8-0.1-1.7-0.5-2.4l-5.1-7.8c-1-1.5-2.9-1.9-4.4-0.9l-3.1,2"></path> <path class="st1" d="M17.4,40.1c-0.3,0-0.6,0-0.9-0.1c-1.1-0.2-2-0.9-2.6-1.8L5.4,25.1c-1.3-1.9-0.7-4.5,1.2-5.8L32.3,2.6 c1.9-1.3,4.5-0.7,5.8,1.2l8.5,13.1c1.3,1.9,0.7,4.5-1.2,5.8L19.7,39.4C19,39.9,18.2,40.1,17.4,40.1 M34.6,3.9 c-0.4,0-0.8,0.1-1.2,0.4L7.7,21c-1,0.7-1.3,2-0.6,3l8.5,13.1c0.3,0.5,0.8,0.8,1.4,0.9c0.6,0.1,1.1,0,1.6-0.3L44.3,21 c1-0.7,1.3-2,0.6-3L36.4,4.9C36,4.3,35.3,3.9,34.6,3.9"></path> <path class="st2" d="M17.4,40.1c-0.3,0-0.6,0-0.9-0.1c-1.1-0.2-2-0.9-2.6-1.8L5.4,25.1c-1.3-1.9-0.7-4.5,1.2-5.8L32.3,2.6 c1.9-1.3,4.5-0.7,5.8,1.2l8.5,13.1c1.3,1.9,0.7,4.5-1.2,5.8L19.7,39.4C19,39.9,18.2,40.1,17.4,40.1z M34.6,3.9 c-0.4,0-0.8,0.1-1.2,0.4L7.7,21c-1,0.7-1.3,2-0.6,3l8.5,13.1c0.3,0.5,0.8,0.8,1.4,0.9c0.6,0.1,1.1,0,1.6-0.3L44.3,21 c1-0.7,1.3-2,0.6-3L36.4,4.9C36,4.3,35.3,3.9,34.6,3.9z"></path> <line class="st3" x1="8.6" y1="10.8" x2="12.3" y2="16.4"></line> <line class="st3" x1="16" y1="5.6" x2="20" y2="11.8"></line> <line class="st3" x1="23.7" y1="1" x2="27.3" y2="6.6"></line> <path class="st1" d="M70.6,96.5c-1.2,0-2.5-0.6-3.2-1.7L44.2,59.2c-0.6-0.8-0.7-1.9-0.5-2.9c0.2-1,0.8-1.8,1.6-2.4l5.4-3.5 c0.8-0.6,1.9-0.7,2.9-0.5c1,0.2,1.8,0.8,2.4,1.6l23.2,35.5c0.6,0.8,0.7,1.9,0.5,2.9c-0.2,1-0.8,1.8-1.6,2.4l-5.4,3.5 C72,96.3,71.3,96.5,70.6,96.5 M52.8,51.9c-0.3,0-0.7,0.1-1,0.3l-5.4,3.5c-0.4,0.3-0.7,0.7-0.8,1.1c-0.1,0.5,0,0.9,0.3,1.3 l23.2,35.5c0.5,0.8,1.7,1.1,2.5,0.5l5.4-3.5c0.4-0.3,0.7-0.7,0.8-1.1c0.1-0.5,0-0.9-0.3-1.3L54.3,52.7c-0.3-0.4-0.7-0.7-1.1-0.8 C53,51.9,52.9,51.9,52.8,51.9"></path> <path class="st2" d="M70.6,96.5c-1.2,0-2.5-0.6-3.2-1.7L44.2,59.2c-0.6-0.8-0.7-1.9-0.5-2.9c0.2-1,0.8-1.8,1.6-2.4l5.4-3.5 c0.8-0.6,1.9-0.7,2.9-0.5c1,0.2,1.8,0.8,2.4,1.6l23.2,35.5c0.6,0.8,0.7,1.9,0.5,2.9c-0.2,1-0.8,1.8-1.6,2.4l-5.4,3.5 C72,96.3,71.3,96.5,70.6,96.5z M52.8,51.9c-0.3,0-0.7,0.1-1,0.3l-5.4,3.5c-0.4,0.3-0.7,0.7-0.8,1.1c-0.1,0.5,0,0.9,0.3,1.3 l23.2,35.5c0.5,0.8,1.7,1.1,2.5,0.5l5.4-3.5c0.4-0.3,0.7-0.7,0.8-1.1c0.1-0.5,0-0.9-0.3-1.3L54.3,52.7c-0.3-0.4-0.7-0.7-1.1-0.8 C53,51.9,52.9,51.9,52.8,51.9z"></path> <path class="st1" d="M27.2,20.3c0.4,0.6,0.2,1.5-0.4,1.9c-0.6,0.4-1.5,0.2-1.9-0.4c-0.4-0.6-0.2-1.5,0.4-1.9 C25.9,19.5,26.7,19.6,27.2,20.3"></path> <path class="st1" d="M19.6,25.2c0.4,0.6,0.2,1.5-0.4,1.9c-0.6,0.4-1.5,0.2-1.9-0.4c-0.4-0.6-0.2-1.5,0.4-1.9 C18.3,24.4,19.2,24.5,19.6,25.2"></path> <path class="st1" d="M34.7,15.4c0.4,0.6,0.2,1.5-0.4,1.9c-0.6,0.4-1.5,0.2-1.9-0.4c-0.4-0.6-0.2-1.5,0.4-1.9 C33.4,14.5,34.3,14.7,34.7,15.4"></path> <path class="st1" d="M77.2,1.2c0,0.5-0.4,1-1,1s-1-0.4-1-1c0-0.5,0.4-1,1-1S77.2,0.6,77.2,1.2"></path> <path class="st1" d="M70.8,3.3c0,0.5-0.4,1-1,1s-1-0.4-1-1c0-0.5,0.4-1,1-1S70.8,2.7,70.8,3.3"></path> <path class="st1" d="M68,10.4c0,0.5-0.4,1-1,1s-1-0.4-1-1c0-0.5,0.4-1,1-1S68,9.8,68,10.4"></path> <path class="st1" d="M70.8,16.8c0,0.5-0.4,1-1,1s-1-0.4-1-1c0-0.5,0.4-1,1-1S70.8,16.2,70.8,16.8"></path> <path class="st1" d="M77.2,18.9c0,0.5-0.4,1-1,1s-1-0.4-1-1c0-0.5,0.4-1,1-1S77.2,18.4,77.2,18.9"></path> <path class="st1" d="M84.3,16.8c0,0.5-0.4,1-1,1s-1-0.4-1-1c0-0.5,0.4-1,1-1S84.3,16.2,84.3,16.8"></path> <path class="st1" d="M86.4,10.4c0,0.5-0.4,1-1,1s-1-0.4-1-1c0-0.5,0.4-1,1-1S86.4,9.8,86.4,10.4"></path> <path class="st1" d="M84.3,3.3c0,0.5-0.4,1-1,1s-1-0.4-1-1c0-0.5,0.4-1,1-1S84.3,2.7,84.3,3.3"></path> <path class="st1" d="M11.2,69.2c0,0.5-0.4,1-1,1c-0.5,0-1-0.4-1-1s0.4-1,1-1C10.7,68.2,11.2,68.6,11.2,69.2"></path> <path class="st1" d="M4.8,71.3c0,0.5-0.4,1-1,1s-1-0.4-1-1s0.4-1,1-1S4.8,70.7,4.8,71.3"></path> <path class="st1" d="M2,78.4c0,0.5-0.4,1-1,1s-1-0.4-1-1s0.4-1,1-1S2,77.8,2,78.4"></path> <path class="st1" d="M4.8,84.8c0,0.5-0.4,1-1,1s-1-0.4-1-1s0.4-1,1-1S4.8,84.2,4.8,84.8"></path> <path class="st1" d="M11.2,86.9c0,0.5-0.4,1-1,1c-0.5,0-1-0.4-1-1s0.4-1,1-1C10.7,85.9,11.2,86.4,11.2,86.9"></path> <path class="st1" d="M18.3,84.8c0,0.5-0.4,1-1,1c-0.5,0-1-0.4-1-1s0.4-1,1-1C17.8,83.8,18.3,84.2,18.3,84.8"></path> <path class="st1" d="M20.4,78.4c0,0.5-0.4,1-1,1c-0.5,0-1-0.4-1-1s0.4-1,1-1C20,77.4,20.4,77.8,20.4,78.4"></path> <path class="st1" d="M18.3,71.3c0,0.5-0.4,1-1,1c-0.5,0-1-0.4-1-1s0.4-1,1-1C17.8,70.3,18.3,70.7,18.3,71.3"></path> </g> </svg> 