<?xml version="1.0" encoding="UTF-8"?> <svg xmlns="http://www.w3.org/2000/svg" xmlns:xlink="http://www.w3.org/1999/xlink" version="1.1" id="Layer_1" x="0px" y="0px" viewBox="0 0 65.7 93.9" style="enable-background:new 0 0 65.7 93.9;" xml:space="preserve"> <style type="text/css"> .st0{clip-path:url(#SVGID_2_);fill:none;stroke:#ffffff;stroke-width:2;stroke-miterlimit:10;} .st1{clip-path:url(#SVGID_2_);fill:none;stroke:#ffffff;stroke-width:2;stroke-linecap:round;stroke-linejoin:round;stroke-miterlimit:10;} .st2{clip-path:url(#SVGID_2_);fill:none;stroke:#ffffff;stroke-linecap:round;stroke-linejoin:round;stroke-miterlimit:10;} .st3{clip-path:url(#SVGID_2_);fill:none;stroke:#ffffff;stroke-width:2;stroke-linecap:round;stroke-miterlimit:10;} .st4{clip-path:url(#SVGID_2_);fill:none;stroke:#ffffff;stroke-width:0.97;stroke-miterlimit:10;} </style> <g> <defs> <rect id="SVGID_1_" y="0" width="65.7" height="93.9"></rect> </defs> <clipPath id="SVGID_2_"> <use xlink:href="#SVGID_1_" style="overflow:visible;"></use> </clipPath> <path class="st0" d="M60.4,92.9c2.4,0,4.3-1.9,4.3-4.3v0c0-15-24.8-5.9-24.8-24.9v-1.4c-2.4,1.3-4.8,2-7.1,2c-2.3,0-4.7-0.7-7.1-2 v1.4c0,19-24.8,9.9-24.8,24.9v0c0,2.4,1.9,4.3,4.3,4.3"></path> <path class="st0" d="M32.5,16.6c10.5,0,19.1,8.7,19.1,19.4v4.7c1.7-3.1,2.6-6.6,2.6-10.3c0-11.9-9.7-21.7-21.7-21.7 s-21.7,9.7-21.7,21.7c0,3.7,0.9,7.2,2.6,10.3V36C13.4,25.3,21.9,16.6,32.5,16.6z"></path> <path class="st0" d="M42.8,11.4C42.8,11.4,42.8,11.4,42.8,11.4C42.8,5.6,38.2,1,32.5,1S22.1,5.6,22.1,11.4c0,0,0,0,0,0.1 c3.1-1.7,6.6-2.6,10.4-2.6C36.2,8.8,39.8,9.7,42.8,11.4z"></path> <path class="st0" d="M32.5,16.6c-9.2,0-16.9,6.6-18.7,15.5C24.3,31.3,32.5,24.6,32.5,16.6z"></path> <path class="st0" d="M51.1,32c-1.8-8.8-9.5-15.5-18.7-15.5C32.5,24.6,40.7,31.3,51.1,32z"></path> <path class="st0" d="M37.3,54.3c-2.7,2.7-7,2.7-9.6,0l2.7-1.3c1.4-0.7,2.9-0.7,4.3,0L37.3,54.3z"></path> <path class="st1" d="M32.5,47.6c-0.7,0-1.3-0.3-1.8-0.8l0,0C31.2,47.3,31.8,47.6,32.5,47.6c0.7,0,1.3-0.3,1.8-0.8l0,0 C33.8,47.4,33.2,47.6,32.5,47.6z"></path> <path class="st1" d="M25.3,41.7c-1.3,0-2.6-0.5-3.6-1.5l0,0c2,2,5.2,2,7.2,0l0,0C27.9,41.2,26.6,41.7,25.3,41.7z"></path> <path class="st1" d="M39.7,41.7c-1.3,0-2.6-0.5-3.6-1.5l0,0c2,2,5.2,2,7.2,0l0,0C42.3,41.2,41,41.7,39.7,41.7z"></path> <path class="st1" d="M36.1,35.4L36.1,35.4c2.2-1.2,4.8-1.4,7.2-0.7l0,0C40.9,34,38.3,34.2,36.1,35.4z"></path> <path class="st1" d="M28.9,35.4c-2.2-1.2-4.8-1.4-7.2-0.6l0,0C24.1,33.9,26.6,34.2,28.9,35.4L28.9,35.4z"></path> <polygon class="st2" points="45.7,42.6 43.3,40.2 43.3,40.1 45.7,42.5 "></polygon> <polygon class="st2" points="42.7,44.4 39.9,41.7 40,41.6 42.7,44.3 "></polygon> <polygon class="st2" points="19.3,42.6 19.2,42.5 21.6,40.1 21.7,40.2 "></polygon> <polygon class="st2" points="22.3,44.4 22.2,44.3 25,41.6 25,41.7 "></polygon> <path class="st3" d="M49.4,50.5c1.3-2.8,2.1-6,2.1-9.3V36c0-10.7-8.5-19.4-19.1-19.4c-10.5,0-19.1,8.7-19.1,19.4v5.2 c0,3.3,0.1,6.7,1.4,9.5"></path> <path class="st3" d="M19,56.2c3.9,4.9,9,7.8,13.8,7.8c4.2,0,8.6-1.9,12.3-5.9"></path> <circle class="st4" cx="55.9" cy="55" r="2.9"></circle> <circle class="st4" cx="57.1" cy="46.8" r="1.7"></circle> <circle class="st4" cx="51.3" cy="59.6" r="3.5"></circle> <path class="st4" d="M50.7,53.8c0,2.3-1.8,4.1-4.1,4.1c-2.3,0-4.1-1.8-4.1-4.1c0-2.3,1.8-4.1,4.1-4.1 C48.9,49.7,50.7,51.6,50.7,53.8z"></path> <path class="st4" d="M13,52.6c2-0.6,3.5-2.2,4.1-4.1c0.1-0.3,0.5-0.3,0.6,0c0.6,2,2.2,3.5,4.1,4.1c0.3,0.1,0.3,0.5,0,0.6 c-2,0.6-3.5,2.2-4.1,4.1c-0.1,0.3-0.5,0.3-0.6,0c-0.6-2-2.2-3.5-4.1-4.1C12.7,53.2,12.7,52.7,13,52.6z"></path> <rect x="10.3" y="58.5" class="st2" width="0" height="1.2"></rect> <rect x="10.3" y="62" class="st2" width="0" height="1.2"></rect> <rect x="8" y="60.8" class="st2" width="1.2" height="0"></rect> <rect x="11.5" y="60.8" class="st2" width="1.2" height="0"></rect> </g> </svg> 