<?xml version="1.0" encoding="UTF-8"?> <svg xmlns="http://www.w3.org/2000/svg" xmlns:xlink="http://www.w3.org/1999/xlink" version="1.1" id="Layer_1" x="0px" y="0px" viewBox="0 0 53.7 68" style="enable-background:new 0 0 53.7 68;" xml:space="preserve"> <style type="text/css"> .st0{clip-path:url(#SVGID_2_);fill:none;stroke:#ffffff;stroke-width:2;stroke-linecap:round;stroke-linejoin:round;stroke-miterlimit:10;} </style> <g> <defs> <rect id="SVGID_1_" y="0" width="53.7" height="68"></rect> </defs> <clipPath id="SVGID_2_"> <use xlink:href="#SVGID_1_" style="overflow:visible;"></use> </clipPath> <path class="st0" d="M10,26.8v-2.6c0-2.8,2.3-5.2,5.2-5.2h6c-2.5,0-4.5-1.8-4.5-4.5s2.1-4.5,4.5-4.5c8.1,0,4.5-9,4.5-9 C28.2,1,37,5.8,37,13.3c0,2.6-2,5.8-4.5,5.8h6c2.8,0,5.2,2.3,5.2,5.2v2.6H10z"></path> <rect x="28.9" y="19.1" class="st0" width="3.6" height="0"></rect> <path class="st0" d="M40.7,67H13C6.4,67,1,61.7,1,55V38.4c0-1.7,1.3-3,3-3h45.7c1.7,0,3,1.3,3,3V55C52.7,61.7,47.3,67,40.7,67z"></path> <rect x="5.3" y="26.8" class="st0" width="43.1" height="8.6"></rect> <path class="st0" d="M32.6,49.8c0,4.2-5.7,8.6-5.7,8.6s-5.7-4.4-5.7-8.6s5.7-8.6,5.7-8.6S32.6,45.6,32.6,49.8z"></path> <path class="st0" d="M39.7,47c0,0-4.4-0.4-7.5,0.9c0.2,0.6,0.4,1.3,0.4,1.9c0,2.8-2.6,5.8-4.3,7.4c0,0.7,0.1,1.2,0.1,1.2 s6.6,0.7,9.3-2C40.3,53.6,39.7,47,39.7,47z"></path> <path class="st0" d="M21.1,49.8c0-0.7,0.1-1.3,0.4-1.9C18.4,46.6,14,47,14,47s-0.7,6.6,2,9.3c2.7,2.7,9.3,2,9.3,2s0-0.5,0.1-1.2 C23.7,55.6,21.1,52.6,21.1,49.8z"></path> </g> </svg> 