<?xml version="1.0" encoding="UTF-8"?> <svg xmlns="http://www.w3.org/2000/svg" xmlns:xlink="http://www.w3.org/1999/xlink" version="1.1" id="Layer_1" x="0px" y="0px" viewBox="0 0 95.3 63.3" style="enable-background:new 0 0 95.3 63.3;" xml:space="preserve"> <style type="text/css"> .st0{clip-path:url(#SVGID_2_);fill:none;stroke:#ffffff;stroke-width:2;stroke-linecap:round;stroke-linejoin:round;stroke-miterlimit:10;} .st1{fill:none;stroke:#ffffff;stroke-linecap:round;stroke-linejoin:round;stroke-miterlimit:10;} .st2{clip-path:url(#SVGID_4_);fill:none;stroke:#ffffff;stroke-width:1.5;stroke-linecap:round;stroke-linejoin:round;stroke-miterlimit:10;} .st3{clip-path:url(#SVGID_4_);fill:#ffffff;} </style> <g> <defs> <rect id="SVGID_1_" y="0" width="95.3" height="63.3"></rect> </defs> <clipPath id="SVGID_2_"> <use xlink:href="#SVGID_1_" style="overflow:visible;"></use> </clipPath> <line class="st0" x1="1" y1="44.8" x2="94.3" y2="44.8"></line> <line class="st0" x1="1" y1="50.8" x2="94.3" y2="50.8"></line> </g> <line class="st1" x1="22.1" y1="11.3" x2="22.1" y2="19.3"></line> <line class="st1" x1="18.1" y1="15.3" x2="26.1" y2="15.3"></line> <line class="st1" x1="75" y1="6.1" x2="75" y2="10.5"></line> <line class="st1" x1="72.8" y1="8.3" x2="77.2" y2="8.3"></line> <line class="st1" x1="54.1" y1="30.6" x2="54.1" y2="37"></line> <line class="st1" x1="50.9" y1="33.8" x2="57.3" y2="33.8"></line> <g> <defs> <rect id="SVGID_3_" y="0" width="95.3" height="63.3"></rect> </defs> <clipPath id="SVGID_4_"> <use xlink:href="#SVGID_3_" style="overflow:visible;"></use> </clipPath> <path class="st2" d="M38,8.3c5.6-1.9,6.6-7.5,6.6-7.5s0.9,5.6,6.6,7.5c-5.6,1.9-6.6,7.5-6.6,7.5S43.6,10.1,38,8.3z"></path> <path class="st2" d="M56,20.3c5.6-1.9,6.6-7.5,6.6-7.5s0.9,5.6,6.6,7.5c-5.6,1.9-6.6,7.5-6.6,7.5S61.6,22.1,56,20.3z"></path> <path class="st2" d="M26.4,28.8C32.9,26.6,34,20,34,20s1.1,6.6,7.7,8.8c-6.6,2.2-7.7,8.8-7.7,8.8S32.9,30.9,26.4,28.8z"></path> <path class="st3" d="M22.9,56.5c-0.1,0.5-0.6,0.9-1.1,0.8c-0.5-0.1-0.9-0.6-0.8-1.1c0.1-0.5,0.6-0.9,1.1-0.8 C22.7,55.4,23,55.9,22.9,56.5"></path> <path class="st3" d="M16.6,56.5c-0.1,0.5-0.6,0.9-1.1,0.8c-0.5-0.1-0.9-0.6-0.8-1.1c0.1-0.5,0.6-0.9,1.1-0.8 C16.4,55.4,16.7,55.9,16.6,56.5"></path> <path class="st3" d="M35.5,56.5c-0.1,0.5-0.6,0.9-1.1,0.8c-0.5-0.1-0.9-0.6-0.8-1.1c0.1-0.5,0.6-0.9,1.1-0.8 C35.3,55.4,35.6,55.9,35.5,56.5"></path> <path class="st3" d="M29.2,56.5c-0.1,0.5-0.6,0.9-1.1,0.8c-0.5-0.1-0.9-0.6-0.8-1.1c0.1-0.5,0.6-0.9,1.1-0.8 C29,55.4,29.3,55.9,29.2,56.5"></path> <path class="st3" d="M48.1,56.5C48,57,47.5,57.3,47,57.2c-0.5-0.1-0.9-0.6-0.8-1.1c0.1-0.5,0.6-0.9,1.1-0.8 C47.9,55.4,48.2,55.9,48.1,56.5"></path> <path class="st3" d="M41.8,56.5c-0.1,0.5-0.6,0.9-1.1,0.8c-0.5-0.1-0.9-0.6-0.8-1.1c0.1-0.5,0.6-0.9,1.1-0.8 C41.6,55.4,41.9,55.9,41.8,56.5"></path> <path class="st3" d="M60.7,56.5c-0.1,0.5-0.6,0.9-1.1,0.8c-0.5-0.1-0.9-0.6-0.8-1.1c0.1-0.5,0.6-0.9,1.1-0.8 C60.5,55.4,60.8,55.9,60.7,56.5"></path> <path class="st3" d="M54.4,56.5c-0.1,0.5-0.6,0.9-1.1,0.8c-0.5-0.1-0.9-0.6-0.8-1.1c0.1-0.5,0.6-0.9,1.1-0.8 C54.2,55.4,54.5,55.9,54.4,56.5"></path> <path class="st3" d="M73.3,56.5c-0.1,0.5-0.6,0.9-1.1,0.8c-0.5-0.1-0.9-0.6-0.8-1.1c0.1-0.5,0.6-0.9,1.1-0.8 C73.1,55.4,73.4,55.9,73.3,56.5"></path> <path class="st3" d="M67,56.5c-0.1,0.5-0.6,0.9-1.1,0.8c-0.5-0.1-0.9-0.6-0.8-1.1c0.1-0.5,0.6-0.9,1.1-0.8 C66.8,55.4,67.1,55.9,67,56.5"></path> <path class="st3" d="M79.6,56.5c-0.1,0.5-0.6,0.9-1.1,0.8c-0.5-0.1-0.9-0.6-0.8-1.1c0.1-0.5,0.6-0.9,1.1-0.8 C79.4,55.4,79.7,55.9,79.6,56.5"></path> <path class="st3" d="M22.9,62.5c-0.1,0.5-0.6,0.9-1.1,0.8c-0.5-0.1-0.9-0.6-0.8-1.1c0.1-0.5,0.6-0.9,1.1-0.8 C22.7,61.4,23,61.9,22.9,62.5"></path> <path class="st3" d="M35.5,62.5c-0.1,0.5-0.6,0.9-1.1,0.8c-0.5-0.1-0.9-0.6-0.8-1.1c0.1-0.5,0.6-0.9,1.1-0.8 C35.3,61.4,35.6,61.9,35.5,62.5"></path> <path class="st3" d="M29.2,62.5c-0.1,0.5-0.6,0.9-1.1,0.8c-0.5-0.1-0.9-0.6-0.8-1.1c0.1-0.5,0.6-0.9,1.1-0.8 C29,61.4,29.3,61.9,29.2,62.5"></path> <path class="st3" d="M48.1,62.5C48,63,47.5,63.3,47,63.2c-0.5-0.1-0.9-0.6-0.8-1.1c0.1-0.5,0.6-0.9,1.1-0.8 C47.9,61.4,48.2,61.9,48.1,62.5"></path> <path class="st3" d="M41.8,62.5c-0.1,0.5-0.6,0.9-1.1,0.8c-0.5-0.1-0.9-0.6-0.8-1.1c0.1-0.5,0.6-0.9,1.1-0.8 C41.6,61.4,41.9,61.9,41.8,62.5"></path> <path class="st3" d="M60.7,62.5c-0.1,0.5-0.6,0.9-1.1,0.8c-0.5-0.1-0.9-0.6-0.8-1.1c0.1-0.5,0.6-0.9,1.1-0.8 C60.5,61.4,60.8,61.9,60.7,62.5"></path> <path class="st3" d="M54.4,62.5c-0.1,0.5-0.6,0.9-1.1,0.8c-0.5-0.1-0.9-0.6-0.8-1.1c0.1-0.5,0.6-0.9,1.1-0.8 C54.2,61.4,54.5,61.9,54.4,62.5"></path> <path class="st3" d="M73.3,62.5c-0.1,0.5-0.6,0.9-1.1,0.8c-0.5-0.1-0.9-0.6-0.8-1.1c0.1-0.5,0.6-0.9,1.1-0.8 C73.1,61.4,73.4,61.9,73.3,62.5"></path> <path class="st3" d="M67,62.5c-0.1,0.5-0.6,0.9-1.1,0.8c-0.5-0.1-0.9-0.6-0.8-1.1c0.1-0.5,0.6-0.9,1.1-0.8 C66.8,61.4,67.1,61.9,67,62.5"></path> </g> </svg> 