<?xml version="1.0" encoding="UTF-8"?> <svg xmlns="http://www.w3.org/2000/svg" xmlns:xlink="http://www.w3.org/1999/xlink" version="1.1" id="Layer_1" x="0px" y="0px" viewBox="0 0 65.7 98.5" style="enable-background:new 0 0 65.7 98.5;" xml:space="preserve"> <style type="text/css"> .st0{clip-path:url(#SVGID_2_);fill:none;stroke:#ffffff;stroke-width:2;stroke-miterlimit:10;} .st1{clip-path:url(#SVGID_2_);fill:none;stroke:#ffffff;stroke-width:1.5;stroke-miterlimit:10;} .st2{clip-path:url(#SVGID_2_);fill:none;stroke:#ffffff;stroke-width:1.5;stroke-linecap:round;stroke-linejoin:round;stroke-miterlimit:10;} .st3{clip-path:url(#SVGID_2_);fill:none;stroke:#ffffff;stroke-width:2;stroke-linecap:round;stroke-linejoin:round;stroke-miterlimit:10;} </style> <g> <defs> <rect id="SVGID_1_" y="0" width="65.7" height="98.5"></rect> </defs> <clipPath id="SVGID_2_"> <use xlink:href="#SVGID_1_" style="overflow:visible;"></use> </clipPath> <path class="st0" d="M60.4,97.5c2.4,0,4.3-1.9,4.3-4.3v0c0-15-24.8-5.9-24.8-24.9v-1.4c-2.4,1.3-4.8,2-7.1,2c-2.3,0-4.7-0.7-7.1-2 v1.4c0,19-24.8,9.9-24.8,24.9v0c0,2.4,1.9,4.3,4.3,4.3"></path> <path class="st0" d="M52,40.4c0-11.1-8.8-20-19.6-20s-19.6,9-19.6,20v5.3c0,12.6,11,22.9,19.6,22.9S52,58.4,52,45.7V40.4z"></path> <circle class="st1" cx="24" cy="45" r="7"></circle> <path class="st2" d="M24,42.2C24,42.2,24,42.2,24,42.2C24,42.2,24,42.2,24,42.2C24,42.2,24,42.2,24,42.2C24,42.2,24,42.2,24,42.2z"></path> <path class="st2" d="M24,47.8C24,47.8,24,47.9,24,47.8C24,47.9,24,47.8,24,47.8C24,47.8,24,47.8,24,47.8C24,47.8,24,47.8,24,47.8z"></path> <path class="st2" d="M26.8,45C26.8,45,26.8,45,26.8,45C26.8,45,26.8,45,26.8,45C26.8,45,26.8,45,26.8,45C26.8,45,26.8,45,26.8,45z"></path> <path class="st2" d="M21.2,45C21.2,45,21.2,45,21.2,45C21.2,45,21.2,45,21.2,45C21.2,45,21.2,45,21.2,45C21.2,45,21.2,45,21.2,45z"></path> <circle class="st1" cx="40.8" cy="45" r="7"></circle> <path class="st2" d="M40.8,42.2C40.8,42.2,40.8,42.2,40.8,42.2C40.8,42.2,40.8,42.2,40.8,42.2C40.8,42.2,40.8,42.2,40.8,42.2 C40.8,42.2,40.8,42.2,40.8,42.2z"></path> <path class="st2" d="M40.9,47.8C40.9,47.8,40.9,47.9,40.9,47.8C40.8,47.9,40.8,47.8,40.9,47.8C40.8,47.8,40.8,47.8,40.9,47.8 C40.9,47.8,40.9,47.8,40.9,47.8z"></path> <path class="st2" d="M43.7,45C43.7,45,43.7,45,43.7,45C43.6,45,43.6,45,43.7,45C43.6,45,43.6,45,43.7,45C43.7,45,43.7,45,43.7,45z"></path> <path class="st2" d="M38,45C38,45,38,45,38,45C38,45,38,45,38,45C38,45,38,45,38,45C38,45,38,45,38,45z"></path> <path class="st3" d="M32.4,60.1c-1.4,0-2.8-0.5-3.8-1.6l0.2-0.2c2,2,5.3,2,7.3,0l0.2,0.2C35.2,59.6,33.8,60.1,32.4,60.1z"></path> <path class="st0" d="M32.4,19.6c4.4,0,8.5,1.4,11.8,3.8c-2.8-7.5-9.9-12.8-18.3-12.8c-10.8,0-19.6,8.8-19.6,19.7 c0,5.8,1.5,10.9,5.4,14.5c-0.4-1.6,0.4-3.2,0.4-4.8C12.1,28.8,21.2,19.6,32.4,19.6z"></path> <path class="st0" d="M44.2,23.4c5.2,3.7,8.5,9.7,8.5,16.6c0,0.2,0,0.4,0,0.6c3.6-3.5,5.8-8.1,5.8-13.1c0-10.9-10.2-19.7-22.9-19.7 c-4.4,0-8.5,1.1-12,2.9c0.7-0.1,1.4-0.1,2.2-0.1C34.3,10.7,41.4,16,44.2,23.4z"></path> <path class="st0" d="M23.7,10.8c3.5-1.9,7.6-2.9,12-2.9c4.3,0,8.3,1,11.7,2.8c-3-5.8-8.6-9.7-15-9.7c-7.3,0-13.5,5-16.1,12.2 C18.5,11.9,21,11.1,23.7,10.8z"></path> </g> </svg> 