<?xml version="1.0" encoding="UTF-8"?> <svg xmlns="http://www.w3.org/2000/svg" xmlns:xlink="http://www.w3.org/1999/xlink" version="1.1" id="Layer_1" x="0px" y="0px" viewBox="0 0 145.7 150.8" style="enable-background:new 0 0 145.7 150.8;" xml:space="preserve"> <style type="text/css"> .st0{clip-path:url(#SVGID_2_);fill:none;stroke:#ffffff;stroke-linecap:round;stroke-linejoin:round;stroke-miterlimit:10;} </style> <g> <defs> <rect id="SVGID_1_" width="145.7" height="150.8"></rect> </defs> <clipPath id="SVGID_2_"> <use xlink:href="#SVGID_1_" style="overflow:visible;"></use> </clipPath> <path class="st0" d="M15.5,121.8l20.2-22.1l3.3-21.2c9.9-8.8,21.2-14.9,21.2-14.9l13.8-1.3l42.8-22l8.5,4.8"></path> <polyline class="st0" points="35.7,99.7 51.8,95.9 62,82.1 71.3,77.7 "></polyline> <line class="st0" x1="108.4" y1="92.5" x2="111.5" y2="82.4"></line> <line class="st0" x1="36.2" y1="139.5" x2="60.7" y2="111.5"></line> <polyline class="st0" points="65.4,94 58.8,104.5 60.7,111.5 73.7,105.8 89.9,108 108.4,92.5 "></polyline> <polyline class="st0" points="65.4,94 73.3,72.7 87.5,72.7 100.6,69.5 "></polyline> <polyline class="st0" points="73.3,72.7 85.1,64.9 93.4,61.9 "></polyline> <polyline class="st0" points="60.1,63.6 61,54.7 70.2,50.3 "></polyline> <polyline class="st0" points="89.9,108 88.6,87.9 89.7,85.5 "></polyline> <line class="st0" x1="100.6" y1="69.5" x2="107.2" y2="65.8"></line> <polyline class="st0" points="96.8,144.3 102.6,123.7 118.2,113.4 127.8,103 132.8,103 "></polyline> <polyline class="st0" points="118.2,113.4 137.4,109 145.2,97 "></polyline> <polyline class="st0" points="0.5,61.1 21.7,58.8 34.2,50.3 45.3,44.9 79.7,0.5 "></polyline> <polyline class="st0" points="21.7,58.8 7.8,65.8 0.5,85.5 "></polyline> <polyline class="st0" points="60.7,150.3 84.3,121.8 104.8,114.7 102.6,123.7 "></polyline> </g> </svg> 